<?xml version="1.0" encoding="UTF-8"?><svg id="a" xmlns="http://www.w3.org/2000/svg" xmlns:xlink="http://www.w3.org/1999/xlink" viewBox="0 0 213.48 218.19"><defs><clipPath id="b"><path d="M209.59,218.19H3.89c-2.15,0-3.89-1.74-3.89-3.89V3.89C0,1.74,1.74,0,3.89,0h205.7c2.15,0,3.89,1.74,3.89,3.89v210.4c0,2.15-1.74,3.89-3.89,3.89" fill="none"/></clipPath><clipPath id="c"><polyline points="213.48 218.19 0 218.19 0 0 213.48 0 213.48 218.19" fill="none"/></clipPath><clipPath id="d"><polyline points="213.48 0 0 0 0 218.19 2.25 218.19 2.25 17.67 211.5 17.67 211.5 218.19 213.48 218.19 213.48 0" fill="none"/></clipPath><clipPath id="e"><path d="M210.24,15.36h-9.95c-.78,0-1.41-.63-1.41-1.41V4.01c0-.78.63-1.41,1.41-1.41h9.95c.78,0,1.41.63,1.41,1.41v9.95c0,.78-.63,1.41-1.41,1.41" fill="none"/></clipPath><clipPath id="f"><path d="M195.48,15.36h-9.95c-.78,0-1.41-.63-1.41-1.41V4.01c0-.78.63-1.41,1.41-1.41h9.95c.78,0,1.41.63,1.41,1.41v9.95c0,.78-.63,1.41-1.41,1.41" fill="none"/></clipPath><clipPath id="g"><path d="M180.41,15.36h-9.95c-.78,0-1.41-.63-1.41-1.41V4.01c0-.78.63-1.41,1.41-1.41h9.95c.78,0,1.41.63,1.41,1.41v9.95c0,.78-.63,1.41-1.41,1.41" fill="none"/></clipPath></defs><rect x="2.32" y="8.98" width="209.33" height="204.27" fill="#fff"/><g clip-path="url(#b)"><g clip-path="url(#c)"><rect x="0" y="17.67" width="213.48" height="12.4" fill="#ffdce7"/><rect y="205.79" width="213.48" height="12.4" fill="#ffdce7"/><g clip-path="url(#d)"><polyline points="213.48 59.33 0 59.43 0 0 213.48 0 213.48 59.33" fill="#0584ff"/><rect x="0" y="59.38" width="213.48" height="3.75" fill="#0584ff"/><rect x="0" y="63.13" width="213.48" height="3.75" fill="#0582fd"/><rect x="0" y="66.89" width="213.48" height="3.75" fill="#0580fc"/><rect x="0" y="70.64" width="213.48" height="3.75" fill="#057efa"/><rect x="0" y="74.39" width="213.48" height="3.75" fill="#067cf9"/><rect x="0" y="78.15" width="213.48" height="3.75" fill="#067af7"/><rect x="0" y="81.9" width="213.48" height="3.75" fill="#0678f6"/><rect x="0" y="85.66" width="213.48" height="3.75" fill="#0676f4"/><rect x="0" y="89.41" width="213.48" height="3.75" fill="#0674f3"/><rect x="0" y="93.16" width="213.48" height="3.75" fill="#0673f2"/><rect x="0" y="96.92" width="213.48" height="3.75" fill="#0671f0"/><rect x="0" y="100.67" width="213.48" height="3.75" fill="#066fef"/><rect x="0" y="104.43" width="213.48" height="3.75" fill="#066eee"/><rect x="0" y="108.18" width="213.48" height="3.75" fill="#066ced"/><rect x="0" y="111.93" width="213.48" height="3.75" fill="#076beb"/><rect x="0" y="115.69" width="213.48" height="3.75" fill="#0769ea"/><rect x="0" y="119.44" width="213.48" height="3.75" fill="#0768e9"/><rect x="0" y="123.2" width="213.48" height="3.75" fill="#0767e8"/><rect x="0" y="126.95" width="213.48" height="3.75" fill="#0765e7"/><rect x="0" y="130.7" width="213.48" height="3.75" fill="#0764e6"/><rect x="0" y="134.46" width="213.48" height="3.75" fill="#0763e5"/><rect x="0" y="138.21" width="213.48" height="3.75" fill="#0762e4"/><rect x="0" y="141.96" width="213.48" height="3.75" fill="#0761e3"/><rect x="0" y="145.72" width="213.48" height="3.75" fill="#075fe3"/><rect x="0" y="149.47" width="213.48" height="3.75" fill="#075ee2"/><rect x="0" y="153.23" width="213.48" height="3.75" fill="#075de1"/><rect x="0" y="156.98" width="213.48" height="3.75" fill="#075de0"/><rect x="0" y="160.73" width="213.48" height="3.75" fill="#075ce0"/><rect x="0" y="164.49" width="213.48" height="3.75" fill="#085bdf"/><rect x="0" y="168.24" width="213.48" height="3.75" fill="#085ade"/><rect x="0" y="172" width="213.48" height="3.75" fill="#0859de"/><rect x="0" y="175.75" width="213.48" height="3.75" fill="#0859dd"/><rect x="0" y="179.5" width="213.48" height="3.75" fill="#0858dd"/><rect x="0" y="183.26" width="213.48" height="3.75" fill="#0857dc"/><rect x="0" y="187.01" width="213.48" height="3.75" fill="#0857dc"/><rect x="0" y="190.77" width="213.48" height="3.75" fill="#0856db"/><rect x="0" y="194.52" width="213.48" height="3.75" fill="#0856db"/><rect x="0" y="198.27" width="213.48" height="3.75" fill="#0855db"/><rect x="0" y="202.03" width="213.48" height="3.75" fill="#0855da"/><rect x="0" y="205.78" width="213.48" height="3.75" fill="#0854da"/><rect x="0" y="209.54" width="213.48" height="3.75" fill="#0854da"/><rect x="0" y="213.29" width="213.48" height="3.75" fill="#0854da"/><polygon points="0 217.09 213.48 217 213.48 218.19 0 218.19 0 217.09" fill="#0854d9"/></g></g></g><g clip-path="url(#e)"><rect x="198.88" y="2.6" width="12.76" height=".99" fill="#ed4524"/><rect x="198.88" y="3.59" width="12.76" height=".14" fill="#ed4524"/><rect x="198.88" y="3.73" width="12.76" height=".14" fill="#ed4424"/><rect x="198.88" y="3.87" width="12.76" height=".14" fill="#ed4324"/><rect x="198.88" y="4.01" width="12.76" height=".14" fill="#ed4224"/><rect x="198.88" y="4.15" width="12.76" height=".14" fill="#ed4124"/><rect x="198.88" y="4.29" width="12.76" height=".14" fill="#ed4024"/><rect x="198.88" y="4.43" width="12.76" height=".14" fill="#ed3f24"/><rect x="198.88" y="4.57" width="12.76" height=".14" fill="#ed3e24"/><rect x="198.88" y="4.71" width="12.76" height=".14" fill="#ed3d24"/><rect x="198.88" y="4.85" width="12.76" height=".14" fill="#ed3c24"/><rect x="198.88" y="4.99" width="12.76" height=".14" fill="#ed3b24"/><rect x="198.88" y="5.12" width="12.76" height=".14" fill="#ed3a24"/><rect x="198.88" y="5.26" width="12.76" height=".14" fill="#ed3924"/><rect x="198.88" y="5.4" width="12.76" height=".14" fill="#ed3824"/><rect x="198.88" y="5.54" width="12.76" height=".14" fill="#ed3724"/><rect x="198.88" y="5.68" width="12.76" height=".14" fill="#ed3624"/><rect x="198.88" y="5.82" width="12.76" height=".14" fill="#ed3524"/><rect x="198.88" y="5.96" width="12.76" height=".14" fill="#ed3424"/><rect x="198.88" y="6.1" width="12.76" height=".14" fill="#ed3324"/><rect x="198.88" y="6.24" width="12.76" height=".14" fill="#ed3224"/><rect x="198.88" y="6.38" width="12.76" height=".14" fill="#ed3024"/><rect x="198.88" y="6.52" width="12.76" height=".14" fill="#ed2f24"/><rect x="198.88" y="6.66" width="12.76" height=".14" fill="#ed2e24"/><rect x="198.88" y="6.8" width="12.76" height=".14" fill="#ed2d24"/><rect x="198.88" y="6.94" width="12.76" height=".14" fill="#ed2c24"/><rect x="198.88" y="7.08" width="12.76" height=".14" fill="#ed2b24"/><rect x="198.88" y="7.22" width="12.76" height=".14" fill="#ed2a24"/><rect x="198.88" y="7.36" width="12.76" height=".14" fill="#ed2924"/><rect x="198.88" y="7.49" width="12.76" height=".14" fill="#ed2824"/><rect x="198.88" y="7.63" width="12.76" height=".14" fill="#ed2724"/><rect x="198.88" y="7.77" width="12.76" height=".14" fill="#ed2624"/><rect x="198.88" y="7.91" width="12.76" height=".14" fill="#ed2524"/><rect x="198.88" y="8.05" width="12.76" height=".14" fill="#ed2424"/><rect x="198.88" y="8.19" width="12.76" height=".14" fill="#ed2324"/><rect x="198.88" y="8.33" width="12.76" height=".14" fill="#ed2224"/><rect x="198.88" y="8.47" width="12.76" height=".14" fill="#ed2124"/><rect x="198.88" y="8.61" width="12.76" height=".14" fill="#ed2024"/><rect x="198.88" y="8.75" width="12.76" height=".14" fill="#ed1f24"/><rect x="198.88" y="8.89" width="12.76" height=".14" fill="#ed1e24"/><rect x="198.88" y="9.03" width="12.76" height=".14" fill="#ed1d24"/><rect x="198.88" y="9.17" width="12.76" height=".14" fill="#ed1c24"/><rect x="198.88" y="9.31" width="12.76" height=".14" fill="#ed1c24"/><rect x="198.88" y="9.45" width="12.76" height=".14" fill="#ec1c24"/><rect x="198.88" y="9.59" width="12.76" height=".14" fill="#eb1c24"/><rect x="198.88" y="9.73" width="12.76" height=".14" fill="#ea1c25"/><rect x="198.88" y="9.87" width="12.76" height=".14" fill="#e91c25"/><rect x="198.88" y="10.01" width="12.76" height=".14" fill="#e81c25"/><rect x="198.88" y="10.16" width="12.76" height=".14" fill="#e71c25"/><rect x="198.88" y="10.3" width="12.76" height=".14" fill="#e61c25"/><rect x="198.88" y="10.44" width="12.76" height=".14" fill="#e51c26"/><rect x="198.88" y="10.58" width="12.76" height=".14" fill="#e41c26"/><rect x="198.88" y="10.72" width="12.76" height=".14" fill="#e31c26"/><rect x="198.88" y="10.86" width="12.76" height=".14" fill="#e21c26"/><rect x="198.88" y="11" width="12.76" height=".14" fill="#e11d26"/><rect x="198.88" y="11.15" width="12.76" height=".14" fill="#e01d27"/><rect x="198.88" y="11.29" width="12.76" height=".14" fill="#df1d27"/><rect x="198.88" y="11.43" width="12.76" height=".14" fill="#de1d27"/><rect x="198.88" y="11.57" width="12.76" height=".14" fill="#dd1d27"/><rect x="198.88" y="11.71" width="12.76" height=".14" fill="#dc1d27"/><rect x="198.88" y="11.85" width="12.76" height=".14" fill="#db1d28"/><rect x="198.88" y="11.99" width="12.76" height=".14" fill="#da1d28"/><rect x="198.88" y="12.14" width="12.76" height=".14" fill="#d91d28"/><rect x="198.88" y="12.28" width="12.76" height=".14" fill="#d71d28"/><rect x="198.88" y="12.42" width="12.76" height=".14" fill="#d61d28"/><rect x="198.88" y="12.56" width="12.76" height=".14" fill="#d51d29"/><rect x="198.88" y="12.7" width="12.76" height=".14" fill="#d41d29"/><rect x="198.88" y="12.84" width="12.76" height=".14" fill="#d31d29"/><rect x="198.88" y="12.98" width="12.76" height=".14" fill="#d21d29"/><rect x="198.88" y="13.13" width="12.76" height=".14" fill="#d11d29"/><rect x="198.88" y="13.27" width="12.76" height=".14" fill="#d01d29"/><rect x="198.88" y="13.41" width="12.76" height=".14" fill="#cf1d2a"/><rect x="198.88" y="13.55" width="12.76" height=".14" fill="#ce1d2a"/><rect x="198.88" y="13.69" width="12.76" height=".14" fill="#cd1d2a"/><rect x="198.88" y="13.83" width="12.76" height=".14" fill="#cc1d2a"/><rect x="198.88" y="13.97" width="12.76" height=".14" fill="#cb1d2a"/><rect x="198.88" y="14.12" width="12.76" height=".14" fill="#ca1d2b"/><rect x="198.88" y="14.26" width="12.76" height=".14" fill="#c91e2b"/><rect x="198.88" y="14.4" width="12.76" height=".14" fill="#c81e2b"/><rect x="198.88" y="14.54" width="12.76" height=".14" fill="#c71e2b"/><rect x="198.88" y="14.68" width="12.76" height=".14" fill="#c61e2b"/><rect x="198.88" y="14.82" width="12.76" height=".14" fill="#c51e2c"/><rect x="198.88" y="14.96" width="12.76" height=".14" fill="#c41e2c"/><rect x="198.88" y="15.11" width="12.76" height=".14" fill="#c31e2c"/><rect x="198.88" y="15.25" width="12.76" height=".11" fill="#c21e2c"/></g><path d="M201.89,13.15c-.19,0-.38-.07-.53-.22-.29-.29-.3-.77,0-1.06l6.75-6.85c.29-.3.76-.3,1.06,0,.29.29.3.77,0,1.06l-6.75,6.85c-.15.15-.34.22-.53.22Z" fill="#ffecd9"/><path d="M208.64,13.15c-.19,0-.39-.07-.53-.22l-6.75-6.85c-.29-.3-.29-.77,0-1.06.3-.29.77-.29,1.06,0l6.75,6.85c.29.3.29.77,0,1.06-.15.14-.34.22-.53.22Z" fill="#ffecd9"/><g clip-path="url(#f)"><path d="M195.48,2.6h-9.95c-.63,0-1.17.42-1.35,1h12.64c-.18-.58-.71-1-1.35-1" fill="#16f"/><path d="M196.83,3.59h-12.64c-.01.05-.03.1-.03.15h12.71c0-.05-.02-.1-.04-.15" fill="#16f"/><path d="M196.86,3.73h-12.71c0,.05-.02.1-.02.15h12.75c0-.05-.01-.1-.02-.15" fill="#16f"/><path d="M196.89,3.87h-12.75s0,.09,0,.14h0s12.76,0,12.76,0h0s0-.09,0-.14" fill="#1165ff"/><polyline points="196.89 4.01 184.13 4.01 184.13 4.15 196.89 4.15 196.89 4.01" fill="#1165ff"/><polyline points="196.89 4.15 184.13 4.15 184.13 4.29 196.89 4.28 196.89 4.15" fill="#1164ff"/><polyline points="196.89 4.28 184.13 4.29 184.13 4.43 196.89 4.42 196.89 4.28" fill="#1164ff"/><polyline points="196.89 4.42 184.13 4.43 184.13 4.57 196.89 4.56 196.89 4.42" fill="#1163ff"/><polyline points="196.89 4.56 184.13 4.57 184.13 4.71 196.89 4.7 196.89 4.56" fill="#1163ff"/><polyline points="196.89 4.7 184.13 4.71 184.13 4.85 196.89 4.84 196.89 4.7" fill="#1162ff"/><polyline points="196.89 4.84 184.13 4.85 184.13 4.99 196.89 4.98 196.89 4.84" fill="#1162ff"/><polyline points="196.89 4.98 184.13 4.99 184.13 5.13 196.89 5.12 196.89 4.98" fill="#1161ff"/><polyline points="196.89 5.12 184.13 5.13 184.13 5.27 196.89 5.26 196.89 5.12" fill="#1161ff"/><polyline points="196.89 5.26 184.13 5.27 184.13 5.41 196.89 5.4 196.89 5.26" fill="#1160ff"/><polyline points="196.89 5.4 184.13 5.41 184.13 5.55 196.89 5.54 196.89 5.4" fill="#1160ff"/><polyline points="196.89 5.54 184.13 5.55 184.13 5.69 196.89 5.68 196.89 5.54" fill="#115fff"/><polyline points="196.89 5.68 184.13 5.69 184.13 5.83 196.89 5.82 196.89 5.68" fill="#115fff"/><polyline points="196.89 5.82 184.13 5.83 184.13 5.96 196.89 5.96 196.89 5.82" fill="#115eff"/><polyline points="196.89 5.96 184.13 5.96 184.13 6.1 196.89 6.1 196.89 5.96" fill="#115eff"/><polyline points="196.89 6.1 184.13 6.1 184.13 6.24 196.89 6.24 196.89 6.1" fill="#115dff"/><polyline points="196.89 6.24 184.13 6.24 184.13 6.38 196.89 6.38 196.89 6.24" fill="#115dff"/><polyline points="196.89 6.38 184.13 6.38 184.13 6.52 196.89 6.52 196.89 6.38" fill="#115cff"/><polyline points="196.89 6.52 184.13 6.52 184.13 6.66 196.89 6.66 196.89 6.52" fill="#115bff"/><polyline points="196.89 6.66 184.13 6.66 184.13 6.8 196.89 6.79 196.89 6.66" fill="#115bff"/><polyline points="196.89 6.79 184.13 6.8 184.13 6.94 196.89 6.93 196.89 6.79" fill="#115aff"/><polyline points="196.89 6.93 184.13 6.94 184.13 7.08 196.89 7.07 196.89 6.93" fill="#115aff"/><polyline points="196.89 7.07 184.13 7.08 184.13 7.22 196.89 7.21 196.89 7.07" fill="#1159ff"/><polyline points="196.89 7.21 184.13 7.22 184.13 7.36 196.89 7.35 196.89 7.21" fill="#1159ff"/><polyline points="196.89 7.35 184.13 7.36 184.13 7.5 196.89 7.49 196.89 7.35" fill="#1158ff"/><polyline points="196.89 7.49 184.13 7.5 184.13 7.64 196.89 7.63 196.89 7.49" fill="#1158ff"/><polyline points="196.89 7.63 184.13 7.64 184.13 7.78 196.89 7.77 196.89 7.63" fill="#1157ff"/><polyline points="196.89 7.77 184.13 7.78 184.13 7.92 196.89 7.91 196.89 7.77" fill="#1157ff"/><polyline points="196.89 7.91 184.13 7.92 184.13 8.06 196.89 8.05 196.89 7.91" fill="#1156ff"/><polyline points="196.89 8.05 184.13 8.06 184.13 8.2 196.89 8.19 196.89 8.05" fill="#1156ff"/><polyline points="196.89 8.19 184.13 8.2 184.13 8.33 196.89 8.33 196.89 8.19" fill="#15f"/><polyline points="196.89 8.33 184.13 8.33 184.13 8.47 196.89 8.47 196.89 8.33" fill="#15f"/><polyline points="196.89 8.47 184.13 8.47 184.13 8.61 196.89 8.61 196.89 8.47" fill="#1154ff"/><polyline points="196.89 8.61 184.13 8.61 184.13 8.75 196.89 8.75 196.89 8.61" fill="#1154ff"/><polyline points="196.89 8.75 184.13 8.75 184.13 8.89 196.89 8.89 196.89 8.75" fill="#1153ff"/><polyline points="196.89 8.89 184.13 8.89 184.13 9.03 196.89 9.03 196.89 8.89" fill="#1153ff"/><polyline points="196.89 9.03 184.13 9.03 184.13 9.17 196.89 9.16 196.89 9.03" fill="#1152ff"/><polyline points="196.89 9.16 184.13 9.17 184.13 9.31 196.89 9.3 196.89 9.16" fill="#1152ff"/><polyline points="196.89 9.3 184.13 9.31 184.13 9.45 196.89 9.45 196.89 9.3" fill="#1152ff"/><polyline points="196.89 9.45 184.13 9.45 184.13 9.59 196.89 9.59 196.89 9.45" fill="#1052ff"/><polyline points="196.89 9.59 184.13 9.59 184.13 9.73 196.89 9.73 196.89 9.59" fill="#1052ff"/><polyline points="196.89 9.73 184.13 9.73 184.13 9.88 196.89 9.87 196.89 9.73" fill="#1052ff"/><polyline points="196.89 9.87 184.13 9.88 184.13 10.02 196.89 10.01 196.89 9.87" fill="#1052ff"/><polyline points="196.89 10.01 184.13 10.02 184.13 10.16 196.89 10.15 196.89 10.01" fill="#1052ff"/><polyline points="196.89 10.15 184.13 10.16 184.13 10.3 196.89 10.29 196.89 10.15" fill="#1052ff"/><polyline points="196.89 10.29 184.13 10.3 184.13 10.44 196.89 10.44 196.89 10.29" fill="#1052ff"/><polyline points="196.89 10.44 184.13 10.44 184.13 10.58 196.89 10.58 196.89 10.44" fill="#1052ff"/><polyline points="196.89 10.58 184.13 10.58 184.13 10.72 196.89 10.72 196.89 10.58" fill="#1052ff"/><polyline points="196.89 10.72 184.13 10.72 184.13 10.87 196.89 10.86 196.89 10.72" fill="#0f52ff"/><polyline points="196.89 10.86 184.13 10.87 184.13 11.01 196.89 11 196.89 10.86" fill="#0f52ff"/><polyline points="196.89 11 184.13 11.01 184.13 11.15 196.89 11.14 196.89 11" fill="#0f52ff"/><polyline points="196.89 11.14 184.13 11.15 184.13 11.29 196.89 11.28 196.89 11.14" fill="#0f52ff"/><polyline points="196.89 11.28 184.13 11.29 184.13 11.43 196.89 11.43 196.89 11.28" fill="#0f52ff"/><polyline points="196.89 11.43 184.13 11.43 184.13 11.57 196.89 11.57 196.89 11.43" fill="#0f52ff"/><polyline points="196.89 11.57 184.13 11.57 184.13 11.71 196.89 11.71 196.89 11.57" fill="#0f52ff"/><polyline points="196.89 11.71 184.13 11.71 184.13 11.86 196.89 11.85 196.89 11.71" fill="#0f52ff"/><polyline points="196.89 11.85 184.13 11.86 184.13 12 196.89 11.99 196.89 11.85" fill="#0f52ff"/><polyline points="196.89 11.99 184.13 12 184.13 12.14 196.89 12.13 196.89 11.99" fill="#0e52ff"/><polyline points="196.89 12.13 184.13 12.14 184.13 12.28 196.89 12.27 196.89 12.13" fill="#0e52ff"/><polyline points="196.89 12.27 184.13 12.28 184.13 12.42 196.89 12.42 196.89 12.27" fill="#0e52ff"/><polyline points="196.89 12.42 184.13 12.42 184.13 12.56 196.89 12.56 196.89 12.42" fill="#0e52ff"/><polyline points="196.89 12.56 184.13 12.56 184.13 12.7 196.89 12.7 196.89 12.56" fill="#0e52ff"/><polyline points="196.89 12.7 184.13 12.7 184.13 12.85 196.89 12.84 196.89 12.7" fill="#0e52ff"/><polyline points="196.89 12.84 184.13 12.85 184.13 12.99 196.89 12.98 196.89 12.84" fill="#0e52ff"/><polyline points="196.89 12.98 184.13 12.99 184.13 13.13 196.89 13.12 196.89 12.98" fill="#0e52ff"/><polyline points="196.89 13.12 184.13 13.13 184.13 13.27 196.89 13.26 196.89 13.12" fill="#0d52ff"/><polyline points="196.89 13.26 184.13 13.27 184.13 13.41 196.89 13.41 196.89 13.26" fill="#0d52ff"/><polyline points="196.89 13.41 184.13 13.41 184.13 13.55 196.89 13.55 196.89 13.41" fill="#0d52ff"/><polyline points="196.89 13.55 184.13 13.55 184.13 13.69 196.89 13.69 196.89 13.55" fill="#0d52ff"/><polyline points="196.89 13.69 184.13 13.69 184.13 13.84 196.89 13.83 196.89 13.69" fill="#0d52ff"/><path d="M196.89,13.83h-12.76v.12s0,.02,0,.03h12.76s0-.02,0-.03v-.12" fill="#0d52ff"/><path d="M196.89,13.97h-12.76c0,.05,0,.1,0,.15h12.74c0-.05,0-.1,0-.15" fill="#0d52ff"/><path d="M196.88,14.11h-12.74c0,.05.01.1.02.15h12.7c.01-.05.02-.1.02-.15" fill="#0d52ff"/><path d="M196.86,14.25h-12.7c.01.05.02.1.04.15h12.62c.02-.05.03-.1.04-.15" fill="#0d53ff"/><path d="M196.82,14.4h-12.62c.02.05.04.1.06.15h12.5c.02-.05.04-.1.06-.15" fill="#0c53ff"/><path d="M196.76,14.54h-12.5c.02.06.05.1.08.15h12.35c.03-.05.05-.1.07-.15" fill="#0c53ff"/><path d="M196.69,14.68h-12.35c.03.06.06.1.1.15h12.16c.04-.05.07-.1.1-.15" fill="#0c53ff"/><path d="M196.59,14.82h-12.16c.04.06.08.1.13.15h11.9c.05-.05.09-.1.13-.15" fill="#0c53ff"/><path d="M196.47,14.96h-11.9c.05.06.11.1.17.15h11.56c.06-.05.12-.1.17-.15" fill="#0c53ff"/><path d="M196.29,15.1h-11.56c.08.06.17.11.26.15h11.05c.09-.04.17-.09.25-.15" fill="#0c53ff"/><path d="M196.04,15.24h-11.05c.17.08.35.11.54.11h9.95c.2,0,.39-.04.56-.11" fill="#0c53ff"/></g><g clip-path="url(#g)"><path d="M180.41,2.6h-9.95c-.63,0-1.17.42-1.35,1h12.64c-.18-.58-.71-1-1.35-1" fill="#16f"/><path d="M181.75,3.59h-12.64c-.01.05-.03.1-.03.15h12.71c0-.05-.02-.1-.04-.15" fill="#16f"/><path d="M181.79,3.73h-12.71c0,.05-.02.1-.02.15h12.75c0-.05-.01-.1-.02-.15" fill="#16f"/><path d="M181.81,3.87h-12.75s0,.09,0,.14h0s12.76,0,12.76,0h0s0-.09,0-.14" fill="#1165ff"/><polyline points="181.82 4.01 169.05 4.01 169.05 4.15 181.82 4.15 181.82 4.01" fill="#1165ff"/><polyline points="181.82 4.15 169.05 4.15 169.05 4.29 181.82 4.28 181.82 4.15" fill="#1164ff"/><polyline points="181.82 4.28 169.05 4.29 169.05 4.43 181.82 4.42 181.82 4.28" fill="#1164ff"/><polyline points="181.82 4.42 169.05 4.43 169.05 4.57 181.82 4.56 181.82 4.42" fill="#1163ff"/><polyline points="181.82 4.56 169.05 4.57 169.05 4.71 181.82 4.7 181.82 4.56" fill="#1163ff"/><polyline points="181.82 4.7 169.05 4.71 169.05 4.85 181.82 4.84 181.82 4.7" fill="#1162ff"/><polyline points="181.82 4.84 169.05 4.85 169.05 4.99 181.82 4.98 181.82 4.84" fill="#1162ff"/><polyline points="181.82 4.98 169.05 4.99 169.05 5.13 181.82 5.12 181.82 4.98" fill="#1161ff"/><polyline points="181.82 5.12 169.05 5.13 169.05 5.27 181.82 5.26 181.82 5.12" fill="#1161ff"/><polyline points="181.82 5.26 169.05 5.27 169.05 5.41 181.82 5.4 181.82 5.26" fill="#1160ff"/><polyline points="181.82 5.4 169.05 5.41 169.05 5.55 181.82 5.54 181.82 5.4" fill="#1160ff"/><polyline points="181.82 5.54 169.05 5.55 169.05 5.69 181.82 5.68 181.82 5.54" fill="#115fff"/><polyline points="181.82 5.68 169.05 5.69 169.05 5.83 181.82 5.82 181.82 5.68" fill="#115fff"/><polyline points="181.82 5.82 169.05 5.83 169.05 5.96 181.82 5.96 181.82 5.82" fill="#115eff"/><polyline points="181.82 5.96 169.05 5.96 169.05 6.1 181.82 6.1 181.82 5.96" fill="#115eff"/><polyline points="181.82 6.1 169.05 6.1 169.05 6.24 181.82 6.24 181.82 6.1" fill="#115dff"/><polyline points="181.82 6.24 169.05 6.24 169.05 6.38 181.82 6.38 181.82 6.24" fill="#115dff"/><polyline points="181.82 6.38 169.05 6.38 169.05 6.52 181.82 6.52 181.82 6.38" fill="#115cff"/><polyline points="181.82 6.52 169.05 6.52 169.05 6.66 181.82 6.66 181.82 6.52" fill="#115bff"/><polyline points="181.82 6.66 169.05 6.66 169.05 6.8 181.82 6.79 181.82 6.66" fill="#115bff"/><polyline points="181.82 6.79 169.05 6.8 169.05 6.94 181.82 6.93 181.82 6.79" fill="#115aff"/><polyline points="181.82 6.93 169.05 6.94 169.05 7.08 181.82 7.07 181.82 6.93" fill="#115aff"/><polyline points="181.82 7.07 169.05 7.08 169.05 7.22 181.82 7.21 181.82 7.07" fill="#1159ff"/><polyline points="181.82 7.21 169.05 7.22 169.05 7.36 181.82 7.35 181.82 7.21" fill="#1159ff"/><polyline points="181.82 7.35 169.05 7.36 169.05 7.5 181.82 7.49 181.82 7.35" fill="#1158ff"/><polyline points="181.82 7.49 169.05 7.5 169.05 7.64 181.82 7.63 181.82 7.49" fill="#1158ff"/><polyline points="181.82 7.63 169.05 7.64 169.05 7.78 181.82 7.77 181.82 7.63" fill="#1157ff"/><polyline points="181.82 7.77 169.05 7.78 169.05 7.92 181.82 7.91 181.82 7.77" fill="#1157ff"/><polyline points="181.82 7.91 169.05 7.92 169.05 8.06 181.82 8.05 181.82 7.91" fill="#1156ff"/><polyline points="181.82 8.05 169.05 8.06 169.05 8.2 181.82 8.19 181.82 8.05" fill="#1156ff"/><polyline points="181.82 8.19 169.05 8.2 169.05 8.33 181.82 8.33 181.82 8.19" fill="#15f"/><polyline points="181.82 8.33 169.05 8.33 169.05 8.47 181.82 8.47 181.82 8.33" fill="#15f"/><polyline points="181.82 8.47 169.05 8.47 169.05 8.61 181.82 8.61 181.82 8.47" fill="#1154ff"/><polyline points="181.82 8.61 169.05 8.61 169.05 8.75 181.82 8.75 181.82 8.61" fill="#1154ff"/><polyline points="181.82 8.75 169.05 8.75 169.05 8.89 181.82 8.89 181.82 8.75" fill="#1153ff"/><polyline points="181.82 8.89 169.05 8.89 169.05 9.03 181.82 9.03 181.82 8.89" fill="#1153ff"/><polyline points="181.82 9.03 169.05 9.03 169.05 9.17 181.82 9.16 181.82 9.03" fill="#1152ff"/><polyline points="181.82 9.16 169.05 9.17 169.05 9.31 181.82 9.3 181.82 9.16" fill="#1152ff"/><polyline points="181.82 9.3 169.05 9.31 169.05 9.45 181.82 9.45 181.82 9.3" fill="#1152ff"/><polyline points="181.82 9.45 169.05 9.45 169.05 9.59 181.82 9.59 181.82 9.45" fill="#1052ff"/><polyline points="181.82 9.59 169.05 9.59 169.05 9.73 181.82 9.73 181.82 9.59" fill="#1052ff"/><polyline points="181.82 9.73 169.05 9.73 169.05 9.88 181.82 9.87 181.82 9.73" fill="#1052ff"/><polyline points="181.82 9.87 169.05 9.88 169.05 10.02 181.82 10.01 181.82 9.87" fill="#1052ff"/><polyline points="181.82 10.01 169.05 10.02 169.05 10.16 181.82 10.15 181.82 10.01" fill="#1052ff"/><polyline points="181.82 10.15 169.05 10.16 169.05 10.3 181.82 10.29 181.82 10.15" fill="#1052ff"/><polyline points="181.82 10.29 169.05 10.3 169.05 10.44 181.82 10.44 181.82 10.29" fill="#1052ff"/><polyline points="181.82 10.44 169.05 10.44 169.05 10.58 181.82 10.58 181.82 10.44" fill="#1052ff"/><polyline points="181.82 10.58 169.05 10.58 169.05 10.72 181.82 10.72 181.82 10.58" fill="#1052ff"/><polyline points="181.82 10.72 169.05 10.72 169.05 10.87 181.82 10.86 181.82 10.72" fill="#0f52ff"/><polyline points="181.82 10.86 169.05 10.87 169.05 11.01 181.82 11 181.82 10.86" fill="#0f52ff"/><polyline points="181.82 11 169.05 11.01 169.05 11.15 181.82 11.14 181.82 11" fill="#0f52ff"/><polyline points="181.82 11.14 169.05 11.15 169.05 11.29 181.82 11.28 181.82 11.14" fill="#0f52ff"/><polyline points="181.82 11.28 169.05 11.29 169.05 11.43 181.82 11.43 181.82 11.28" fill="#0f52ff"/><polyline points="181.82 11.43 169.05 11.43 169.05 11.57 181.82 11.57 181.82 11.43" fill="#0f52ff"/><polyline points="181.82 11.57 169.05 11.57 169.05 11.71 181.82 11.71 181.82 11.57" fill="#0f52ff"/><polyline points="181.82 11.71 169.05 11.71 169.05 11.86 181.82 11.85 181.82 11.71" fill="#0f52ff"/><polyline points="181.82 11.85 169.05 11.86 169.05 12 181.82 11.99 181.82 11.85" fill="#0f52ff"/><polyline points="181.82 11.99 169.05 12 169.05 12.14 181.82 12.13 181.82 11.99" fill="#0e52ff"/><polyline points="181.82 12.13 169.05 12.14 169.05 12.28 181.82 12.27 181.82 12.13" fill="#0e52ff"/><polyline points="181.82 12.27 169.05 12.28 169.05 12.42 181.82 12.42 181.82 12.27" fill="#0e52ff"/><polyline points="181.82 12.42 169.05 12.42 169.05 12.56 181.82 12.56 181.82 12.42" fill="#0e52ff"/><polyline points="181.82 12.56 169.05 12.56 169.05 12.7 181.82 12.7 181.82 12.56" fill="#0e52ff"/><polyline points="181.82 12.7 169.05 12.7 169.05 12.85 181.82 12.84 181.82 12.7" fill="#0e52ff"/><polyline points="181.82 12.84 169.05 12.85 169.05 12.99 181.82 12.98 181.82 12.84" fill="#0e52ff"/><polyline points="181.82 12.98 169.05 12.99 169.05 13.13 181.82 13.12 181.82 12.98" fill="#0e52ff"/><polyline points="181.82 13.12 169.05 13.13 169.05 13.27 181.82 13.26 181.82 13.12" fill="#0d52ff"/><polyline points="181.82 13.26 169.05 13.27 169.05 13.41 181.82 13.41 181.82 13.26" fill="#0d52ff"/><polyline points="181.82 13.41 169.05 13.41 169.05 13.55 181.82 13.55 181.82 13.41" fill="#0d52ff"/><polyline points="181.82 13.55 169.05 13.55 169.05 13.69 181.82 13.69 181.82 13.55" fill="#0d52ff"/><polyline points="181.82 13.69 169.05 13.69 169.05 13.84 181.82 13.83 181.82 13.69" fill="#0d52ff"/><path d="M181.82,13.83h-12.76v.12s0,.02,0,.03h12.76s0-.02,0-.03v-.12" fill="#0d52ff"/><path d="M181.82,13.97h-12.76c0,.05,0,.1,0,.15h12.74c0-.05,0-.1,0-.15" fill="#0d52ff"/><path d="M181.81,14.11h-12.74c0,.05.01.1.02.15h12.7c.01-.05.02-.1.02-.15" fill="#0d52ff"/><path d="M181.78,14.25h-12.7c.01.05.02.1.04.15h12.62c.02-.05.03-.1.04-.15" fill="#0d53ff"/><path d="M181.74,14.4h-12.62c.02.05.04.1.06.15h12.5c.02-.05.04-.1.06-.15" fill="#0c53ff"/><path d="M181.69,14.54h-12.5c.02.06.05.1.08.15h12.35c.03-.05.05-.1.07-.15" fill="#0c53ff"/><path d="M181.61,14.68h-12.35c.03.06.06.1.1.15h12.16c.04-.05.07-.1.1-.15" fill="#0c53ff"/><path d="M181.52,14.82h-12.16c.04.06.08.1.13.15h11.9c.05-.05.09-.1.13-.15" fill="#0c53ff"/><path d="M181.39,14.96h-11.9c.05.06.11.1.17.15h11.56c.06-.05.12-.1.17-.15" fill="#0c53ff"/><path d="M181.22,15.1h-11.56c.08.06.17.11.26.15h11.05c.09-.04.17-.09.25-.15" fill="#0c53ff"/><path d="M180.97,15.24h-11.05c.17.08.35.11.54.11h9.95c.2,0,.39-.04.56-.11" fill="#0c53ff"/></g></svg>