<?xml version="1.0" encoding="UTF-8"?><svg id="a" xmlns="http://www.w3.org/2000/svg" width="7.38in" height="6.52in" xmlns:xlink="http://www.w3.org/1999/xlink" viewBox="0 0 531.69 469.61"><defs><clipPath id="b"><path d="M53.03,40.43h394.37c4.12,0,7.46,3.34,7.46,7.46v403.4c0,4.12-3.34,7.46-7.46,7.46H53.03c-4.12,0-7.46-3.34-7.46-7.46V47.89c0-4.12,3.34-7.46,7.46-7.46" fill="none"/></clipPath><clipPath id="c"><polyline points="45.57 40.43 454.86 40.43 454.86 458.75 45.57 458.75 45.57 40.43" fill="none"/></clipPath><clipPath id="d"><polyline points="486.11 0 0 0 0 74.31 29.47 74.31 29.47 469.61 49.89 469.61 49.89 74.31 451.07 74.31 451.07 469.61 470.97 469.61 470.97 74.31 486.11 74.31 486.11 0" fill="none"/></clipPath><clipPath id="e"><path d="M429.27,45.4h19.06c1.49,0,2.7,1.21,2.7,2.7v19.06c0,1.49-1.21,2.7-2.7,2.7h-19.06c-1.49,0-2.7-1.21-2.7-2.7v-19.06c0-1.49,1.21-2.7,2.7-2.7" fill="none"/></clipPath><clipPath id="f"><path d="M401.29,45.4h19.06c1.49,0,2.7,1.21,2.7,2.7v19.06c0,1.49-1.21,2.7-2.7,2.7h-19.06c-1.49,0-2.7-1.21-2.7-2.7v-19.06c0-1.49,1.21-2.7,2.7-2.7" fill="none"/></clipPath><clipPath id="g"><path d="M372.38,45.4h19.06c1.49,0,2.7,1.21,2.7,2.7v19.06c0,1.49-1.21,2.7-2.7,2.7h-19.06c-1.49,0-2.7-1.21-2.7-2.7v-19.06c0-1.49,1.21-2.7,2.7-2.7" fill="none"/></clipPath></defs><rect x="45.57" y="69.88" width="405.46" height="371" fill="#fff"/><g clip-path="url(#b)"><g clip-path="url(#c)"><rect x="45.57" y="74.31" width="486.11" height="23.77" fill="#ffdce7"/><rect x="34.45" y="434.96" width="486.11" height="23.77" fill="#ffdce7"/><g clip-path="url(#d)"><polyline points="486.11 127.61 0 127.81 0 0 486.11 0 486.11 127.61" fill="#0584ff"/><rect x="0" y="127.71" width="486.11" height="4.31" fill="#0584ff"/><rect x="0" y="132.02" width="486.11" height="4.31" fill="#0583fe"/><rect x="0" y="136.32" width="486.11" height="4.31" fill="#0582fd"/><rect x="0" y="140.63" width="486.11" height="4.31" fill="#0581fc"/><rect x="0" y="144.93" width="486.11" height="4.31" fill="#0580fc"/><rect x="0" y="149.24" width="486.11" height="4.31" fill="#057ffb"/><rect x="0" y="153.55" width="486.11" height="4.31" fill="#057efa"/><rect x="0" y="157.85" width="486.11" height="4.31" fill="#057df9"/><rect x="0" y="162.16" width="486.11" height="4.31" fill="#057bf8"/><rect x="0" y="166.46" width="486.11" height="4.31" fill="#057af7"/><rect x="0" y="170.77" width="486.11" height="4.31" fill="#0579f6"/><rect x="0" y="175.08" width="486.11" height="4.31" fill="#0578f6"/><rect x="0" y="179.38" width="486.11" height="4.31" fill="#0577f5"/><rect x="0" y="183.69" width="486.11" height="4.31" fill="#0576f4"/><rect x="0" y="187.99" width="486.11" height="4.31" fill="#0575f3"/><rect x="0" y="192.3" width="486.11" height="5.49" fill="#0575f3"/><rect x="0" y="197.79" width="486.11" height="5.49" fill="#0574f2"/><rect x="0" y="203.28" width="486.11" height="5.49" fill="#0573f1"/><rect x="0" y="208.77" width="486.11" height="5.49" fill="#0572f1"/><rect x="0" y="214.27" width="486.11" height="5.49" fill="#0571f0"/><rect x="0" y="219.76" width="486.11" height="5.49" fill="#0670ef"/><rect x="0" y="225.25" width="486.11" height="5.49" fill="#066fee"/><rect x="0" y="230.74" width="486.11" height="5.49" fill="#066eed"/><rect x="0" y="236.23" width="486.11" height="5.49" fill="#066dec"/><rect x="0" y="241.72" width="486.11" height="5.49" fill="#066cec"/><rect x="0" y="247.21" width="486.11" height="5.49" fill="#066aeb"/><rect x="0" y="252.71" width="486.11" height="5.49" fill="#0669ea"/><rect x="0" y="258.2" width="486.11" height="5.49" fill="#0668e9"/><rect x="0" y="263.69" width="486.11" height="5.49" fill="#0667e8"/><rect x="0" y="269.18" width="486.11" height="5.49" fill="#0766e7"/><rect x="0" y="274.67" width="486.11" height="5.49" fill="#0765e7"/><rect x="0" y="280.16" width="486.11" height="5.49" fill="#0764e6"/><rect x="0" y="285.66" width="486.11" height="5.49" fill="#0763e5"/><rect x="0" y="291.15" width="486.11" height="5.49" fill="#0762e4"/><rect x="0" y="296.64" width="486.11" height="9.11" fill="#0762e4"/><rect x="0" y="305.75" width="486.11" height="9.11" fill="#0761e3"/><rect x="0" y="314.86" width="486.11" height="9.11" fill="#0760e2"/><rect x="0" y="323.97" width="486.11" height="9.11" fill="#075fe2"/><rect x="0" y="333.07" width="486.11" height="9.11" fill="#075ee1"/><rect x="0" y="342.18" width="486.11" height="9.11" fill="#075de0"/><rect x="0" y="351.29" width="486.11" height="9.11" fill="#075bdf"/><rect x="0" y="360.4" width="486.11" height="9.11" fill="#075ade"/><rect x="0" y="369.51" width="486.11" height="9.11" fill="#0759dd"/><rect x="0" y="378.62" width="486.11" height="9.11" fill="#0758dd"/><rect x="0" y="387.73" width="486.11" height="9.11" fill="#0757dc"/><rect x="0" y="396.84" width="486.11" height="9.11" fill="#0756db"/><rect x="0" y="405.95" width="486.11" height="39.75" fill="#0756db"/><polygon points="0 445.8 486.11 445.59 486.11 469.61 0 469.61 0 445.8" fill="#0855da"/></g></g></g><g clip-path="url(#e)"><polygon points="451.03 47.26 426.56 47.28 426.56 45.4 451.03 45.4 451.03 47.26" fill="#ed4524"/><rect x="426.56" y="47.27" width="24.46" height=".27" fill="#ed4524"/><rect x="426.56" y="47.54" width="24.46" height=".27" fill="#ed4424"/><rect x="426.56" y="47.81" width="24.46" height=".27" fill="#ed4324"/><rect x="426.56" y="48.08" width="24.46" height=".27" fill="#ed4224"/><rect x="426.56" y="48.35" width="24.46" height=".27" fill="#ed4124"/><rect x="426.56" y="48.62" width="24.46" height=".27" fill="#ed4024"/><rect x="426.56" y="48.89" width="24.46" height=".27" fill="#ed3f24"/><rect x="426.56" y="49.16" width="24.46" height=".27" fill="#ed3e24"/><rect x="426.56" y="49.42" width="24.46" height=".27" fill="#ed3d24"/><rect x="426.56" y="49.69" width="24.46" height=".27" fill="#ed3c24"/><rect x="426.56" y="49.96" width="24.46" height=".27" fill="#ed3b24"/><rect x="426.56" y="50.23" width="24.46" height=".27" fill="#ed3a24"/><rect x="426.56" y="50.5" width="24.46" height=".27" fill="#ed3924"/><rect x="426.56" y="50.77" width="24.46" height=".27" fill="#ed3824"/><rect x="426.56" y="51.04" width="24.46" height=".27" fill="#ed3724"/><rect x="426.56" y="51.3" width="24.46" height=".27" fill="#ed3624"/><rect x="426.56" y="51.57" width="24.46" height=".27" fill="#ed3524"/><rect x="426.56" y="51.84" width="24.46" height=".27" fill="#ed3424"/><rect x="426.56" y="52.11" width="24.46" height=".27" fill="#ed3324"/><rect x="426.56" y="52.38" width="24.46" height=".27" fill="#ed3224"/><rect x="426.56" y="52.65" width="24.46" height=".27" fill="#ed3124"/><rect x="426.56" y="52.92" width="24.46" height=".27" fill="#ed2f24"/><rect x="426.56" y="53.19" width="24.46" height=".27" fill="#ed2e24"/><rect x="426.56" y="53.45" width="24.46" height=".27" fill="#ed2d24"/><rect x="426.56" y="53.72" width="24.46" height=".27" fill="#ed2c24"/><rect x="426.56" y="53.99" width="24.46" height=".27" fill="#ed2b24"/><rect x="426.56" y="54.26" width="24.46" height=".27" fill="#ed2a24"/><rect x="426.56" y="54.53" width="24.46" height=".27" fill="#ed2924"/><rect x="426.56" y="54.8" width="24.46" height=".27" fill="#ed2824"/><rect x="426.56" y="55.07" width="24.46" height=".27" fill="#ed2724"/><rect x="426.56" y="55.33" width="24.46" height=".27" fill="#ed2624"/><rect x="426.56" y="55.6" width="24.46" height=".27" fill="#ed2524"/><rect x="426.56" y="55.87" width="24.46" height=".27" fill="#ed2424"/><rect x="426.56" y="56.14" width="24.46" height=".27" fill="#ed2324"/><rect x="426.56" y="56.41" width="24.46" height=".27" fill="#ed2224"/><rect x="426.56" y="56.68" width="24.46" height=".27" fill="#ed2124"/><rect x="426.56" y="56.95" width="24.46" height=".27" fill="#ed2024"/><rect x="426.56" y="57.22" width="24.46" height=".27" fill="#ed1f24"/><rect x="426.56" y="57.48" width="24.46" height=".27" fill="#ed1e24"/><rect x="426.56" y="57.75" width="24.46" height=".27" fill="#ed1d24"/><rect x="426.56" y="58.02" width="24.46" height=".27" fill="#ed1c24"/><rect x="426.56" y="58.29" width="24.46" height=".27" fill="#ed1c24"/><rect x="426.56" y="58.56" width="24.46" height=".27" fill="#ec1c24"/><rect x="426.56" y="58.83" width="24.46" height=".27" fill="#eb1c24"/><rect x="426.56" y="59.1" width="24.46" height=".27" fill="#ea1c25"/><rect x="426.56" y="59.37" width="24.46" height=".27" fill="#e91c25"/><rect x="426.56" y="59.64" width="24.46" height=".27" fill="#e81c25"/><rect x="426.56" y="59.91" width="24.46" height=".27" fill="#e71c25"/><rect x="426.56" y="60.19" width="24.46" height=".27" fill="#e61c25"/><rect x="426.56" y="60.46" width="24.46" height=".27" fill="#e51c26"/><rect x="426.56" y="60.73" width="24.46" height=".27" fill="#e41c26"/><rect x="426.56" y="61" width="24.46" height=".27" fill="#e31c26"/><rect x="426.56" y="61.27" width="24.46" height=".27" fill="#e21c26"/><rect x="426.56" y="61.54" width="24.46" height=".27" fill="#e11d26"/><rect x="426.56" y="61.81" width="24.46" height=".27" fill="#e01d27"/><rect x="426.56" y="62.08" width="24.46" height=".27" fill="#df1d27"/><rect x="426.56" y="62.35" width="24.46" height=".27" fill="#de1d27"/><rect x="426.56" y="62.62" width="24.46" height=".27" fill="#dd1d27"/><rect x="426.56" y="62.89" width="24.46" height=".27" fill="#dc1d27"/><rect x="426.56" y="63.16" width="24.46" height=".27" fill="#db1d28"/><rect x="426.56" y="63.44" width="24.46" height=".27" fill="#da1d28"/><rect x="426.56" y="63.71" width="24.46" height=".27" fill="#d91d28"/><rect x="426.56" y="63.98" width="24.46" height=".27" fill="#d81d28"/><rect x="426.56" y="64.25" width="24.46" height=".27" fill="#d71d28"/><rect x="426.56" y="64.52" width="24.46" height=".27" fill="#d61d29"/><rect x="426.56" y="64.79" width="24.46" height=".27" fill="#d41d29"/><rect x="426.56" y="65.06" width="24.46" height=".27" fill="#d31d29"/><rect x="426.56" y="65.33" width="24.46" height=".27" fill="#d21d29"/><rect x="426.56" y="65.6" width="24.46" height=".27" fill="#d11d29"/><rect x="426.56" y="65.87" width="24.46" height=".27" fill="#d01d29"/><rect x="426.56" y="66.14" width="24.46" height=".27" fill="#cf1d2a"/><rect x="426.56" y="66.41" width="24.46" height=".27" fill="#ce1d2a"/><rect x="426.56" y="66.69" width="24.46" height=".27" fill="#cd1d2a"/><rect x="426.56" y="66.96" width="24.46" height=".27" fill="#cc1d2a"/><rect x="426.56" y="67.23" width="24.46" height=".27" fill="#cb1d2a"/><rect x="426.56" y="67.5" width="24.46" height=".27" fill="#ca1d2b"/><rect x="426.56" y="67.77" width="24.46" height=".27" fill="#c91e2b"/><rect x="426.56" y="68.04" width="24.46" height=".27" fill="#c81e2b"/><rect x="426.56" y="68.31" width="24.46" height=".27" fill="#c71e2b"/><rect x="426.56" y="68.58" width="24.46" height=".27" fill="#c61e2b"/><rect x="426.56" y="68.85" width="24.46" height=".27" fill="#c51e2c"/><rect x="426.56" y="69.12" width="24.46" height=".27" fill="#c41e2c"/><rect x="426.56" y="69.39" width="24.46" height=".27" fill="#c31e2c"/><polygon points="426.56 69.67 451.03 69.66 451.03 69.86 426.56 69.86 426.56 69.67" fill="#c21e2c"/></g><path d="M432.33,65.65c-.37,0-.73-.14-1.01-.41-.57-.56-.57-1.47-.01-2.03l12.94-13.13c.56-.56,1.47-.57,2.03-.01.57.56.57,1.47.01,2.03l-12.94,13.13c-.28.28-.65.43-1.02.43Z" fill="#ffecd9"/><path d="M445.28,65.65c-.37,0-.74-.14-1.02-.43l-12.94-13.13c-.56-.57-.55-1.48.01-2.03.57-.56,1.48-.55,2.03.01l12.94,13.13c.56.57.55,1.48-.01,2.03-.28.28-.64.41-1.01.41Z" fill="#ffecd9"/><g clip-path="url(#f)"><path d="M420.35,45.4h-19.06c-1.21,0-2.23.79-2.58,1.88l24.2-.02c-.35-1.08-1.37-1.86-2.57-1.86" fill="#16f"/><path d="M422.92,47.26l-24.2.02c-.03.09-.05.18-.07.27l24.35-.02c-.02-.09-.04-.18-.07-.27" fill="#16f"/><path d="M423,47.53l-24.35.02c-.02.09-.03.18-.04.27l24.43-.02c-.01-.09-.02-.18-.04-.27" fill="#16f"/><path d="M423.04,47.8l-24.43.02c0,.09-.01.18-.01.27l24.46-.02c0-.09,0-.18-.02-.27" fill="#1165ff"/><path d="M423.06,48.07l-24.46.02h0v.27l24.46-.02v-.24s0-.02,0-.03" fill="#1165ff"/><polyline points="423.06 48.34 398.59 48.36 398.59 48.63 423.06 48.61 423.06 48.34" fill="#1164ff"/><polyline points="423.06 48.61 398.59 48.63 398.59 48.9 423.06 48.88 423.06 48.61" fill="#1164ff"/><polyline points="423.06 48.88 398.59 48.9 398.59 49.16 423.06 49.15 423.06 48.88" fill="#1163ff"/><polyline points="423.06 49.15 398.59 49.16 398.59 49.43 423.06 49.41 423.06 49.15" fill="#1163ff"/><polyline points="423.06 49.41 398.59 49.43 398.59 49.7 423.06 49.68 423.06 49.41" fill="#1162ff"/><polyline points="423.06 49.68 398.59 49.7 398.59 49.97 423.06 49.95 423.06 49.68" fill="#1162ff"/><polyline points="423.06 49.95 398.59 49.97 398.59 50.24 423.06 50.22 423.06 49.95" fill="#1161ff"/><polyline points="423.06 50.22 398.59 50.24 398.59 50.51 423.06 50.49 423.06 50.22" fill="#1161ff"/><polyline points="423.06 50.49 398.59 50.51 398.59 50.78 423.06 50.76 423.06 50.49" fill="#1160ff"/><polyline points="423.06 50.76 398.59 50.78 398.59 51.05 423.06 51.03 423.06 50.76" fill="#1160ff"/><polyline points="423.06 51.03 398.59 51.05 398.59 51.31 423.06 51.29 423.06 51.03" fill="#115fff"/><polyline points="423.06 51.29 398.59 51.31 398.59 51.58 423.06 51.56 423.06 51.29" fill="#115fff"/><polyline points="423.06 51.56 398.59 51.58 398.59 51.85 423.06 51.83 423.06 51.56" fill="#115eff"/><polyline points="423.06 51.83 398.59 51.85 398.59 52.12 423.06 52.1 423.06 51.83" fill="#115eff"/><polyline points="423.06 52.1 398.59 52.12 398.59 52.39 423.06 52.37 423.06 52.1" fill="#115dff"/><polyline points="423.06 52.37 398.59 52.39 398.59 52.66 423.06 52.64 423.06 52.37" fill="#115dff"/><polyline points="423.06 52.64 398.59 52.66 398.59 52.93 423.06 52.91 423.06 52.64" fill="#115cff"/><polyline points="423.06 52.91 398.59 52.93 398.59 53.19 423.06 53.18 423.06 52.91" fill="#115bff"/><polyline points="423.06 53.18 398.59 53.19 398.59 53.46 423.06 53.44 423.06 53.18" fill="#115bff"/><polyline points="423.06 53.44 398.59 53.46 398.59 53.73 423.06 53.71 423.06 53.44" fill="#115aff"/><polyline points="423.06 53.71 398.59 53.73 398.59 54 423.06 53.98 423.06 53.71" fill="#115aff"/><polyline points="423.06 53.98 398.59 54 398.59 54.27 423.06 54.25 423.06 53.98" fill="#1159ff"/><polyline points="423.06 54.25 398.59 54.27 398.59 54.54 423.06 54.52 423.06 54.25" fill="#1159ff"/><polyline points="423.06 54.52 398.59 54.54 398.59 54.81 423.06 54.79 423.06 54.52" fill="#1158ff"/><polyline points="423.06 54.79 398.59 54.81 398.59 55.08 423.06 55.06 423.06 54.79" fill="#1158ff"/><polyline points="423.06 55.06 398.59 55.08 398.59 55.34 423.06 55.32 423.06 55.06" fill="#1157ff"/><polyline points="423.06 55.32 398.59 55.34 398.59 55.61 423.06 55.59 423.06 55.32" fill="#1157ff"/><polyline points="423.06 55.59 398.59 55.61 398.59 55.88 423.06 55.86 423.06 55.59" fill="#1156ff"/><polyline points="423.06 55.86 398.59 55.88 398.59 56.15 423.06 56.13 423.06 55.86" fill="#1156ff"/><polyline points="423.06 56.13 398.59 56.15 398.59 56.42 423.06 56.4 423.06 56.13" fill="#15f"/><polyline points="423.06 56.4 398.59 56.42 398.59 56.69 423.06 56.67 423.06 56.4" fill="#15f"/><polyline points="423.06 56.67 398.59 56.69 398.59 56.96 423.06 56.94 423.06 56.67" fill="#1154ff"/><polyline points="423.06 56.94 398.59 56.96 398.59 57.22 423.06 57.21 423.06 56.94" fill="#1154ff"/><polyline points="423.06 57.21 398.59 57.22 398.59 57.49 423.06 57.47 423.06 57.21" fill="#1153ff"/><polyline points="423.06 57.47 398.59 57.49 398.59 57.76 423.06 57.74 423.06 57.47" fill="#1153ff"/><polyline points="423.06 57.74 398.59 57.76 398.59 58.03 423.06 58.01 423.06 57.74" fill="#1152ff"/><polyline points="423.06 58.01 398.59 58.03 398.59 58.3 423.06 58.28 423.06 58.01" fill="#1152ff"/><polyline points="423.06 58.28 398.59 58.3 398.59 58.57 423.06 58.55 423.06 58.28" fill="#1152ff"/><polyline points="423.06 58.55 398.59 58.57 398.59 58.84 423.06 58.82 423.06 58.55" fill="#1052ff"/><polyline points="423.06 58.82 398.59 58.84 398.59 59.11 423.06 59.09 423.06 58.82" fill="#1052ff"/><polyline points="423.06 59.09 398.59 59.11 398.59 59.38 423.06 59.36 423.06 59.09" fill="#1052ff"/><polyline points="423.06 59.36 398.59 59.38 398.59 59.65 423.06 59.63 423.06 59.36" fill="#1052ff"/><polyline points="423.06 59.63 398.59 59.65 398.59 59.92 423.06 59.91 423.06 59.63" fill="#1052ff"/><polyline points="423.06 59.91 398.59 59.92 398.59 60.2 423.06 60.18 423.06 59.91" fill="#1052ff"/><polyline points="423.06 60.18 398.59 60.2 398.59 60.47 423.06 60.45 423.06 60.18" fill="#1052ff"/><polyline points="423.06 60.45 398.59 60.47 398.59 60.74 423.06 60.72 423.06 60.45" fill="#1052ff"/><polyline points="423.06 60.72 398.59 60.74 398.59 61.01 423.06 60.99 423.06 60.72" fill="#1052ff"/><polyline points="423.06 60.99 398.59 61.01 398.59 61.28 423.06 61.26 423.06 60.99" fill="#0f52ff"/><polyline points="423.06 61.26 398.59 61.28 398.59 61.55 423.06 61.53 423.06 61.26" fill="#0f52ff"/><polyline points="423.06 61.53 398.59 61.55 398.59 61.82 423.06 61.8 423.06 61.53" fill="#0f52ff"/><polyline points="423.06 61.8 398.59 61.82 398.59 62.09 423.06 62.07 423.06 61.8" fill="#0f52ff"/><polyline points="423.06 62.07 398.59 62.09 398.59 62.36 423.06 62.34 423.06 62.07" fill="#0f52ff"/><polyline points="423.06 62.34 398.59 62.36 398.59 62.63 423.06 62.61 423.06 62.34" fill="#0f52ff"/><polyline points="423.06 62.61 398.59 62.63 398.59 62.9 423.06 62.88 423.06 62.61" fill="#0f52ff"/><polyline points="423.06 62.88 398.59 62.9 398.59 63.17 423.06 63.16 423.06 62.88" fill="#0f52ff"/><polyline points="423.06 63.16 398.59 63.17 398.59 63.45 423.06 63.43 423.06 63.16" fill="#0f52ff"/><polyline points="423.06 63.43 398.59 63.45 398.59 63.72 423.06 63.7 423.06 63.43" fill="#0e52ff"/><polyline points="423.06 63.7 398.59 63.72 398.59 63.99 423.06 63.97 423.06 63.7" fill="#0e52ff"/><polyline points="423.06 63.97 398.59 63.99 398.59 64.26 423.06 64.24 423.06 63.97" fill="#0e52ff"/><polyline points="423.06 64.24 398.59 64.26 398.59 64.53 423.06 64.51 423.06 64.24" fill="#0e52ff"/><polyline points="423.06 64.51 398.59 64.53 398.59 64.8 423.06 64.78 423.06 64.51" fill="#0e52ff"/><polyline points="423.06 64.78 398.59 64.8 398.59 65.07 423.06 65.05 423.06 64.78" fill="#0e52ff"/><polyline points="423.06 65.05 398.59 65.07 398.59 65.34 423.06 65.32 423.06 65.05" fill="#0e52ff"/><polyline points="423.06 65.32 398.59 65.34 398.59 65.61 423.06 65.59 423.06 65.32" fill="#0e52ff"/><polyline points="423.06 65.59 398.59 65.61 398.59 65.88 423.06 65.86 423.06 65.59" fill="#0d52ff"/><polyline points="423.06 65.86 398.59 65.88 398.59 66.15 423.06 66.13 423.06 65.86" fill="#0d52ff"/><polyline points="423.06 66.13 398.59 66.15 398.59 66.42 423.06 66.41 423.06 66.13" fill="#0d52ff"/><polyline points="423.06 66.41 398.59 66.42 398.59 66.7 423.06 66.68 423.06 66.41" fill="#0d52ff"/><polyline points="423.06 66.68 398.59 66.7 398.59 66.97 423.06 66.95 423.06 66.68" fill="#0d52ff"/><path d="M423.06,66.95l-24.46.02v.19s0,.05,0,.08l24.46-.02s0-.04,0-.06v-.21" fill="#0d52ff"/><path d="M423.06,67.22l-24.46.02c0,.09,0,.18.02.27l24.42-.02c.01-.09.02-.18.02-.27" fill="#0d52ff"/><path d="M423.04,67.49l-24.42.02c.01.09.03.18.05.27l24.33-.02c.02-.09.04-.18.05-.27" fill="#0d52ff"/><path d="M422.99,67.76l-24.33.02c.02.09.05.18.08.27l24.17-.02c.03-.09.06-.18.08-.27" fill="#0d53ff"/><path d="M422.91,68.03l-24.17.02c.03.09.07.18.11.27l23.95-.02c.04-.09.08-.18.11-.27" fill="#0c53ff"/><path d="M422.8,68.3l-23.95.02c.04.09.09.18.15.27l23.66-.02c.05-.09.1-.18.15-.27" fill="#0c53ff"/><path d="M422.66,68.57l-23.66.02c.06.09.12.18.19.27l23.27-.02c.07-.09.13-.18.19-.27" fill="#0c53ff"/><path d="M422.47,68.84l-23.27.02c.08.1.16.19.25.27l22.78-.02c.09-.08.17-.18.25-.27" fill="#0c53ff"/><path d="M422.22,69.11l-22.78.02c.11.1.22.19.34.27l22.1-.02c.12-.08.23-.17.33-.27" fill="#0c53ff"/><path d="M421.89,69.39l-22.1.02c.16.11.33.2.51.27l21.1-.02c.18-.07.34-.16.5-.27" fill="#0c53ff"/><path d="M421.39,69.66l-21.1.02c.31.12.65.19,1,.19h19.06c.37,0,.72-.07,1.04-.21" fill="#0c53ff"/></g><g clip-path="url(#g)"><path d="M391.44,45.4h-19.06c-1.21,0-2.23.79-2.58,1.88l24.2-.02c-.35-1.08-1.37-1.86-2.57-1.86" fill="#16f"/><path d="M394.01,47.26l-24.2.02c-.03.09-.05.18-.07.27l24.35-.02c-.02-.09-.04-.18-.07-.27" fill="#16f"/><path d="M394.08,47.53l-24.35.02c-.02.09-.03.18-.04.27l24.43-.02c-.01-.09-.02-.18-.04-.27" fill="#16f"/><path d="M394.13,47.8l-24.43.02c0,.09-.01.18-.01.27l24.46-.02c0-.09,0-.18-.02-.27" fill="#1165ff"/><path d="M394.14,48.07l-24.46.02s0,0,0,.01v.26l24.46-.02v-.24s0-.02,0-.03" fill="#1165ff"/><polyline points="394.14 48.34 369.68 48.36 369.68 48.63 394.14 48.61 394.14 48.34" fill="#1164ff"/><polyline points="394.14 48.61 369.68 48.63 369.68 48.9 394.14 48.88 394.14 48.61" fill="#1164ff"/><polyline points="394.14 48.88 369.68 48.9 369.68 49.16 394.14 49.15 394.14 48.88" fill="#1163ff"/><polyline points="394.14 49.15 369.68 49.16 369.68 49.43 394.14 49.41 394.14 49.15" fill="#1163ff"/><polyline points="394.14 49.41 369.68 49.43 369.68 49.7 394.14 49.68 394.14 49.41" fill="#1162ff"/><polyline points="394.14 49.68 369.68 49.7 369.68 49.97 394.14 49.95 394.14 49.68" fill="#1162ff"/><polyline points="394.14 49.95 369.68 49.97 369.68 50.24 394.14 50.22 394.14 49.95" fill="#1161ff"/><polyline points="394.14 50.22 369.68 50.24 369.68 50.51 394.14 50.49 394.14 50.22" fill="#1161ff"/><polyline points="394.14 50.49 369.68 50.51 369.68 50.78 394.14 50.76 394.14 50.49" fill="#1160ff"/><polyline points="394.14 50.76 369.68 50.78 369.68 51.05 394.14 51.03 394.14 50.76" fill="#1160ff"/><polyline points="394.14 51.03 369.68 51.05 369.68 51.31 394.14 51.29 394.14 51.03" fill="#115fff"/><polyline points="394.14 51.29 369.68 51.31 369.68 51.58 394.14 51.56 394.14 51.29" fill="#115fff"/><polyline points="394.14 51.56 369.68 51.58 369.68 51.85 394.14 51.83 394.14 51.56" fill="#115eff"/><polyline points="394.14 51.83 369.68 51.85 369.68 52.12 394.14 52.1 394.14 51.83" fill="#115eff"/><polyline points="394.14 52.1 369.68 52.12 369.68 52.39 394.14 52.37 394.14 52.1" fill="#115dff"/><polyline points="394.14 52.37 369.68 52.39 369.68 52.66 394.14 52.64 394.14 52.37" fill="#115dff"/><polyline points="394.14 52.64 369.68 52.66 369.68 52.93 394.14 52.91 394.14 52.64" fill="#115cff"/><polyline points="394.14 52.91 369.68 52.93 369.68 53.19 394.14 53.18 394.14 52.91" fill="#115bff"/><polyline points="394.14 53.18 369.68 53.19 369.68 53.46 394.14 53.44 394.14 53.18" fill="#115bff"/><polyline points="394.14 53.44 369.68 53.46 369.68 53.73 394.14 53.71 394.14 53.44" fill="#115aff"/><polyline points="394.14 53.71 369.68 53.73 369.68 54 394.14 53.98 394.14 53.71" fill="#115aff"/><polyline points="394.14 53.98 369.68 54 369.68 54.27 394.14 54.25 394.14 53.98" fill="#1159ff"/><polyline points="394.14 54.25 369.68 54.27 369.68 54.54 394.14 54.52 394.14 54.25" fill="#1159ff"/><polyline points="394.14 54.52 369.68 54.54 369.68 54.81 394.14 54.79 394.14 54.52" fill="#1158ff"/><polyline points="394.14 54.79 369.68 54.81 369.68 55.08 394.14 55.06 394.14 54.79" fill="#1158ff"/><polyline points="394.14 55.06 369.68 55.08 369.68 55.34 394.14 55.32 394.14 55.06" fill="#1157ff"/><polyline points="394.14 55.32 369.68 55.34 369.68 55.61 394.14 55.59 394.14 55.32" fill="#1157ff"/><polyline points="394.14 55.59 369.68 55.61 369.68 55.88 394.14 55.86 394.14 55.59" fill="#1156ff"/><polyline points="394.14 55.86 369.68 55.88 369.68 56.15 394.14 56.13 394.14 55.86" fill="#1156ff"/><polyline points="394.14 56.13 369.68 56.15 369.68 56.42 394.14 56.4 394.14 56.13" fill="#15f"/><polyline points="394.14 56.4 369.68 56.42 369.68 56.69 394.14 56.67 394.14 56.4" fill="#15f"/><polyline points="394.14 56.67 369.68 56.69 369.68 56.96 394.14 56.94 394.14 56.67" fill="#1154ff"/><polyline points="394.14 56.94 369.68 56.96 369.68 57.22 394.14 57.21 394.14 56.94" fill="#1154ff"/><polyline points="394.14 57.21 369.68 57.22 369.68 57.49 394.14 57.47 394.14 57.21" fill="#1153ff"/><polyline points="394.14 57.47 369.68 57.49 369.68 57.76 394.14 57.74 394.14 57.47" fill="#1153ff"/><polyline points="394.14 57.74 369.68 57.76 369.68 58.03 394.14 58.01 394.14 57.74" fill="#1152ff"/><polyline points="394.14 58.01 369.68 58.03 369.68 58.3 394.14 58.28 394.14 58.01" fill="#1152ff"/><polyline points="394.14 58.28 369.68 58.3 369.68 58.57 394.14 58.55 394.14 58.28" fill="#1152ff"/><polyline points="394.14 58.55 369.68 58.57 369.68 58.84 394.14 58.82 394.14 58.55" fill="#1052ff"/><polyline points="394.14 58.82 369.68 58.84 369.68 59.11 394.14 59.09 394.14 58.82" fill="#1052ff"/><polyline points="394.14 59.09 369.68 59.11 369.68 59.38 394.14 59.36 394.14 59.09" fill="#1052ff"/><polyline points="394.14 59.36 369.68 59.38 369.68 59.65 394.14 59.63 394.14 59.36" fill="#1052ff"/><polyline points="394.14 59.63 369.68 59.65 369.68 59.92 394.14 59.91 394.14 59.63" fill="#1052ff"/><polyline points="394.14 59.91 369.68 59.92 369.68 60.2 394.14 60.18 394.14 59.91" fill="#1052ff"/><polyline points="394.14 60.18 369.68 60.2 369.68 60.47 394.14 60.45 394.14 60.18" fill="#1052ff"/><polyline points="394.14 60.45 369.68 60.47 369.68 60.74 394.14 60.72 394.14 60.45" fill="#1052ff"/><polyline points="394.14 60.72 369.68 60.74 369.68 61.01 394.14 60.99 394.14 60.72" fill="#1052ff"/><polyline points="394.14 60.99 369.68 61.01 369.68 61.28 394.14 61.26 394.14 60.99" fill="#0f52ff"/><polyline points="394.14 61.26 369.68 61.28 369.68 61.55 394.14 61.53 394.14 61.26" fill="#0f52ff"/><polyline points="394.14 61.53 369.68 61.55 369.68 61.82 394.14 61.8 394.14 61.53" fill="#0f52ff"/><polyline points="394.14 61.8 369.68 61.82 369.68 62.09 394.14 62.07 394.14 61.8" fill="#0f52ff"/><polyline points="394.14 62.07 369.68 62.09 369.68 62.36 394.14 62.34 394.14 62.07" fill="#0f52ff"/><polyline points="394.14 62.34 369.68 62.36 369.68 62.63 394.14 62.61 394.14 62.34" fill="#0f52ff"/><polyline points="394.14 62.61 369.68 62.63 369.68 62.9 394.14 62.88 394.14 62.61" fill="#0f52ff"/><polyline points="394.14 62.88 369.68 62.9 369.68 63.17 394.14 63.16 394.14 62.88" fill="#0f52ff"/><polyline points="394.14 63.16 369.68 63.17 369.68 63.45 394.14 63.43 394.14 63.16" fill="#0f52ff"/><polyline points="394.14 63.43 369.68 63.45 369.68 63.72 394.14 63.7 394.14 63.43" fill="#0e52ff"/><polyline points="394.14 63.7 369.68 63.72 369.68 63.99 394.14 63.97 394.14 63.7" fill="#0e52ff"/><polyline points="394.14 63.97 369.68 63.99 369.68 64.26 394.14 64.24 394.14 63.97" fill="#0e52ff"/><polyline points="394.14 64.24 369.68 64.26 369.68 64.53 394.14 64.51 394.14 64.24" fill="#0e52ff"/><polyline points="394.14 64.51 369.68 64.53 369.68 64.8 394.14 64.78 394.14 64.51" fill="#0e52ff"/><polyline points="394.14 64.78 369.68 64.8 369.68 65.07 394.14 65.05 394.14 64.78" fill="#0e52ff"/><polyline points="394.14 65.05 369.68 65.07 369.68 65.34 394.14 65.32 394.14 65.05" fill="#0e52ff"/><polyline points="394.14 65.32 369.68 65.34 369.68 65.61 394.14 65.59 394.14 65.32" fill="#0e52ff"/><polyline points="394.14 65.59 369.68 65.61 369.68 65.88 394.14 65.86 394.14 65.59" fill="#0d52ff"/><polyline points="394.14 65.86 369.68 65.88 369.68 66.15 394.14 66.13 394.14 65.86" fill="#0d52ff"/><polyline points="394.14 66.13 369.68 66.15 369.68 66.42 394.14 66.41 394.14 66.13" fill="#0d52ff"/><polyline points="394.14 66.41 369.68 66.42 369.68 66.7 394.14 66.68 394.14 66.41" fill="#0d52ff"/><polyline points="394.14 66.68 369.68 66.7 369.68 66.97 394.14 66.95 394.14 66.68" fill="#0d52ff"/><path d="M394.14,66.95l-24.46.02v.19s0,.05,0,.08l24.46-.02s0-.04,0-.06v-.21" fill="#0d52ff"/><path d="M394.14,67.22l-24.46.02c0,.09,0,.18.02.27l24.42-.02c.01-.09.02-.18.02-.27" fill="#0d52ff"/><path d="M394.12,67.49l-24.42.02c.01.09.03.18.05.27l24.33-.02c.02-.09.04-.18.05-.27" fill="#0d52ff"/><path d="M394.08,67.76l-24.33.02c.02.09.05.18.08.27l24.17-.02c.03-.09.06-.18.08-.27" fill="#0d53ff"/><path d="M394,68.03l-24.17.02c.03.09.07.18.11.27l23.95-.02c.04-.09.08-.18.11-.27" fill="#0c53ff"/><path d="M393.89,68.3l-23.95.02c.04.09.09.18.15.27l23.66-.02c.05-.09.1-.18.15-.27" fill="#0c53ff"/><path d="M393.75,68.57l-23.66.02c.06.09.12.18.19.27l23.27-.02c.07-.09.13-.18.19-.27" fill="#0c53ff"/><path d="M393.56,68.84l-23.27.02c.08.1.16.19.25.27l22.78-.02c.09-.08.17-.18.25-.27" fill="#0c53ff"/><path d="M393.31,69.11l-22.78.02c.11.1.22.19.34.27l22.1-.02c.12-.08.23-.17.33-.27" fill="#0c53ff"/><path d="M392.98,69.39l-22.1.02c.16.11.33.2.51.27l21.1-.02c.18-.07.34-.16.5-.27" fill="#0c53ff"/><path d="M392.48,69.66l-21.1.02c.31.12.65.19,1,.19h19.06c.37,0,.72-.07,1.04-.21" fill="#0c53ff"/></g></svg>