<?xml version="1.0" encoding="UTF-8"?><svg id="a" xmlns="http://www.w3.org/2000/svg" xmlns:xlink="http://www.w3.org/1999/xlink" viewBox="0 0 219.28 218.19"><defs><clipPath id="b"><path d="M215.38,218.19H9.69c-2.15,0-3.89-1.74-3.89-3.89V3.89c0-2.15,1.74-3.89,3.89-3.89h205.7c2.15,0,3.89,1.74,3.89,3.89v210.4c0,2.15-1.74,3.89-3.89,3.89" fill="none"/></clipPath><clipPath id="c"><polyline points="219.28 218.19 5.8 218.19 5.8 0 219.28 0 219.28 218.19" fill="none"/></clipPath><clipPath id="d"><polyline points="219.28 0 5.8 0 5.8 218.19 8.05 218.19 8.05 17.67 217.29 17.67 217.29 218.19 219.28 218.19 219.28 0" fill="none"/></clipPath><clipPath id="e"><path d="M216.03,15.36h-9.95c-.78,0-1.41-.63-1.41-1.41V4.01c0-.78.63-1.41,1.41-1.41h9.95c.78,0,1.41.63,1.41,1.41v9.95c0,.78-.63,1.41-1.41,1.41" fill="none"/></clipPath><clipPath id="f"><path d="M201.28,15.36h-9.95c-.78,0-1.41-.63-1.41-1.41V4.01c0-.78.63-1.41,1.41-1.41h9.95c.78,0,1.41.63,1.41,1.41v9.95c0,.78-.63,1.41-1.41,1.41" fill="none"/></clipPath><clipPath id="g"><path d="M186.2,15.36h-9.95c-.78,0-1.41-.63-1.41-1.41V4.01c0-.78.63-1.41,1.41-1.41h9.95c.78,0,1.41.63,1.41,1.41v9.95c0,.78-.63,1.41-1.41,1.41" fill="none"/></clipPath></defs><rect x="8.11" y="8.98" width="209.33" height="204.27" fill="#fff"/><g clip-path="url(#b)"><g clip-path="url(#c)"><rect x="5.8" y="17.67" width="213.48" height="12.4" fill="#ffdce7"/><rect y="205.79" width="219.28" height="12.4" fill="#ffdce7"/><g clip-path="url(#d)"><polyline points="219.28 59.33 5.8 59.43 5.8 0 219.28 0 219.28 59.33" fill="#0584ff"/><rect x="5.8" y="59.38" width="213.48" height="3.75" fill="#0584ff"/><rect x="5.8" y="63.13" width="213.48" height="3.75" fill="#0582fd"/><rect x="5.8" y="66.89" width="213.48" height="3.75" fill="#0580fc"/><rect x="5.8" y="70.64" width="213.48" height="3.75" fill="#057efa"/><rect x="5.8" y="74.39" width="213.48" height="3.75" fill="#067cf9"/><rect x="5.8" y="78.15" width="213.48" height="3.75" fill="#067af7"/><rect x="5.8" y="81.9" width="213.48" height="3.75" fill="#0678f6"/><rect x="5.8" y="85.66" width="213.48" height="3.75" fill="#0676f4"/><rect x="5.8" y="89.41" width="213.48" height="3.75" fill="#0674f3"/><rect x="5.8" y="93.16" width="213.48" height="3.75" fill="#0673f2"/><rect x="5.8" y="96.92" width="213.48" height="3.75" fill="#0671f0"/><rect x="5.8" y="100.67" width="213.48" height="3.75" fill="#066fef"/><rect x="5.8" y="104.43" width="213.48" height="3.75" fill="#066eee"/><rect x="5.8" y="108.18" width="213.48" height="3.75" fill="#066ced"/><rect x="5.8" y="111.93" width="213.48" height="3.75" fill="#076beb"/><rect x="5.8" y="115.69" width="213.48" height="3.75" fill="#0769ea"/><rect x="5.8" y="119.44" width="213.48" height="3.75" fill="#0768e9"/><rect x="5.8" y="123.2" width="213.48" height="3.75" fill="#0767e8"/><rect x="5.8" y="126.95" width="213.48" height="3.75" fill="#0765e7"/><rect x="5.8" y="130.7" width="213.48" height="3.75" fill="#0764e6"/><rect x="5.8" y="134.46" width="213.48" height="3.75" fill="#0763e5"/><rect x="5.8" y="138.21" width="213.48" height="3.75" fill="#0762e4"/><rect x="5.8" y="141.96" width="213.48" height="3.75" fill="#0761e3"/><rect x="5.8" y="145.72" width="213.48" height="3.75" fill="#075fe3"/><rect x="5.8" y="149.47" width="213.48" height="3.75" fill="#075ee2"/><rect x="5.8" y="153.23" width="213.48" height="3.75" fill="#075de1"/><rect x="5.8" y="156.98" width="213.48" height="3.75" fill="#075de0"/><rect x="5.8" y="160.73" width="213.48" height="3.75" fill="#075ce0"/><rect x="5.8" y="164.49" width="213.48" height="3.75" fill="#085bdf"/><rect x="5.8" y="168.24" width="213.48" height="3.75" fill="#085ade"/><rect x="5.8" y="172" width="213.48" height="3.75" fill="#0859de"/><rect x="5.8" y="175.75" width="213.48" height="3.75" fill="#0859dd"/><rect x="5.8" y="179.5" width="213.48" height="3.75" fill="#0858dd"/><rect x="5.8" y="183.26" width="213.48" height="3.75" fill="#0857dc"/><rect x="5.8" y="187.01" width="213.48" height="3.75" fill="#0857dc"/><rect x="5.8" y="190.77" width="213.48" height="3.75" fill="#0856db"/><rect x="5.8" y="194.52" width="213.48" height="3.75" fill="#0856db"/><rect x="5.8" y="198.27" width="213.48" height="3.75" fill="#0855db"/><rect x="5.8" y="202.03" width="213.48" height="3.75" fill="#0855da"/><rect x="5.8" y="205.78" width="213.48" height="3.75" fill="#0854da"/><rect x="5.8" y="209.54" width="213.48" height="3.75" fill="#0854da"/><rect x="5.8" y="213.29" width="213.48" height="3.75" fill="#0854da"/><polygon points="5.8 217.09 219.28 217 219.28 218.19 5.8 218.19 5.8 217.09" fill="#0854d9"/></g></g></g><g clip-path="url(#e)"><rect x="204.68" y="2.6" width="12.76" height=".99" fill="#ed4524"/><rect x="204.68" y="3.59" width="12.76" height=".14" fill="#ed4524"/><rect x="204.68" y="3.73" width="12.76" height=".14" fill="#ed4424"/><rect x="204.68" y="3.87" width="12.76" height=".14" fill="#ed4324"/><rect x="204.68" y="4.01" width="12.76" height=".14" fill="#ed4224"/><rect x="204.68" y="4.15" width="12.76" height=".14" fill="#ed4124"/><rect x="204.68" y="4.29" width="12.76" height=".14" fill="#ed4024"/><rect x="204.68" y="4.43" width="12.76" height=".14" fill="#ed3f24"/><rect x="204.68" y="4.57" width="12.76" height=".14" fill="#ed3e24"/><rect x="204.68" y="4.71" width="12.76" height=".14" fill="#ed3d24"/><rect x="204.68" y="4.85" width="12.76" height=".14" fill="#ed3c24"/><rect x="204.68" y="4.99" width="12.76" height=".14" fill="#ed3b24"/><rect x="204.68" y="5.12" width="12.76" height=".14" fill="#ed3a24"/><rect x="204.68" y="5.26" width="12.76" height=".14" fill="#ed3924"/><rect x="204.68" y="5.4" width="12.76" height=".14" fill="#ed3824"/><rect x="204.68" y="5.54" width="12.76" height=".14" fill="#ed3724"/><rect x="204.68" y="5.68" width="12.76" height=".14" fill="#ed3624"/><rect x="204.68" y="5.82" width="12.76" height=".14" fill="#ed3524"/><rect x="204.68" y="5.96" width="12.76" height=".14" fill="#ed3424"/><rect x="204.68" y="6.1" width="12.76" height=".14" fill="#ed3324"/><rect x="204.68" y="6.24" width="12.76" height=".14" fill="#ed3224"/><rect x="204.68" y="6.38" width="12.76" height=".14" fill="#ed3024"/><rect x="204.68" y="6.52" width="12.76" height=".14" fill="#ed2f24"/><rect x="204.68" y="6.66" width="12.76" height=".14" fill="#ed2e24"/><rect x="204.68" y="6.8" width="12.76" height=".14" fill="#ed2d24"/><rect x="204.68" y="6.94" width="12.76" height=".14" fill="#ed2c24"/><rect x="204.68" y="7.08" width="12.76" height=".14" fill="#ed2b24"/><rect x="204.68" y="7.22" width="12.76" height=".14" fill="#ed2a24"/><rect x="204.68" y="7.36" width="12.76" height=".14" fill="#ed2924"/><rect x="204.68" y="7.49" width="12.76" height=".14" fill="#ed2824"/><rect x="204.68" y="7.63" width="12.76" height=".14" fill="#ed2724"/><rect x="204.68" y="7.77" width="12.76" height=".14" fill="#ed2624"/><rect x="204.68" y="7.91" width="12.76" height=".14" fill="#ed2524"/><rect x="204.68" y="8.05" width="12.76" height=".14" fill="#ed2424"/><rect x="204.68" y="8.19" width="12.76" height=".14" fill="#ed2324"/><rect x="204.68" y="8.33" width="12.76" height=".14" fill="#ed2224"/><rect x="204.68" y="8.47" width="12.76" height=".14" fill="#ed2124"/><rect x="204.68" y="8.61" width="12.76" height=".14" fill="#ed2024"/><rect x="204.68" y="8.75" width="12.76" height=".14" fill="#ed1f24"/><rect x="204.68" y="8.89" width="12.76" height=".14" fill="#ed1e24"/><rect x="204.68" y="9.03" width="12.76" height=".14" fill="#ed1d24"/><rect x="204.68" y="9.17" width="12.76" height=".14" fill="#ed1c24"/><rect x="204.68" y="9.31" width="12.76" height=".14" fill="#ed1c24"/><rect x="204.68" y="9.45" width="12.76" height=".14" fill="#ec1c24"/><rect x="204.68" y="9.59" width="12.76" height=".14" fill="#eb1c24"/><rect x="204.68" y="9.73" width="12.76" height=".14" fill="#ea1c25"/><rect x="204.68" y="9.87" width="12.76" height=".14" fill="#e91c25"/><rect x="204.68" y="10.01" width="12.76" height=".14" fill="#e81c25"/><rect x="204.68" y="10.16" width="12.76" height=".14" fill="#e71c25"/><rect x="204.68" y="10.3" width="12.76" height=".14" fill="#e61c25"/><rect x="204.68" y="10.44" width="12.76" height=".14" fill="#e51c26"/><rect x="204.68" y="10.58" width="12.76" height=".14" fill="#e41c26"/><rect x="204.68" y="10.72" width="12.76" height=".14" fill="#e31c26"/><rect x="204.68" y="10.86" width="12.76" height=".14" fill="#e21c26"/><rect x="204.68" y="11" width="12.76" height=".14" fill="#e11d26"/><rect x="204.68" y="11.15" width="12.76" height=".14" fill="#e01d27"/><rect x="204.68" y="11.29" width="12.76" height=".14" fill="#df1d27"/><rect x="204.68" y="11.43" width="12.76" height=".14" fill="#de1d27"/><rect x="204.68" y="11.57" width="12.76" height=".14" fill="#dd1d27"/><rect x="204.68" y="11.71" width="12.76" height=".14" fill="#dc1d27"/><rect x="204.68" y="11.85" width="12.76" height=".14" fill="#db1d28"/><rect x="204.68" y="11.99" width="12.76" height=".14" fill="#da1d28"/><rect x="204.68" y="12.14" width="12.76" height=".14" fill="#d91d28"/><rect x="204.68" y="12.28" width="12.76" height=".14" fill="#d71d28"/><rect x="204.68" y="12.42" width="12.76" height=".14" fill="#d61d28"/><rect x="204.68" y="12.56" width="12.76" height=".14" fill="#d51d29"/><rect x="204.68" y="12.7" width="12.76" height=".14" fill="#d41d29"/><rect x="204.68" y="12.84" width="12.76" height=".14" fill="#d31d29"/><rect x="204.68" y="12.98" width="12.76" height=".14" fill="#d21d29"/><rect x="204.68" y="13.13" width="12.76" height=".14" fill="#d11d29"/><rect x="204.68" y="13.27" width="12.76" height=".14" fill="#d01d29"/><rect x="204.68" y="13.41" width="12.76" height=".14" fill="#cf1d2a"/><rect x="204.68" y="13.55" width="12.76" height=".14" fill="#ce1d2a"/><rect x="204.68" y="13.69" width="12.76" height=".14" fill="#cd1d2a"/><rect x="204.68" y="13.83" width="12.76" height=".14" fill="#cc1d2a"/><rect x="204.68" y="13.97" width="12.76" height=".14" fill="#cb1d2a"/><rect x="204.68" y="14.12" width="12.76" height=".14" fill="#ca1d2b"/><rect x="204.68" y="14.26" width="12.76" height=".14" fill="#c91e2b"/><rect x="204.68" y="14.4" width="12.76" height=".14" fill="#c81e2b"/><rect x="204.68" y="14.54" width="12.76" height=".14" fill="#c71e2b"/><rect x="204.68" y="14.68" width="12.76" height=".14" fill="#c61e2b"/><rect x="204.68" y="14.82" width="12.76" height=".14" fill="#c51e2c"/><rect x="204.68" y="14.96" width="12.76" height=".14" fill="#c41e2c"/><rect x="204.68" y="15.11" width="12.76" height=".14" fill="#c31e2c"/><rect x="204.68" y="15.25" width="12.76" height=".11" fill="#c21e2c"/></g><path d="M207.69,13.15c-.19,0-.38-.07-.53-.22-.29-.29-.3-.77,0-1.06l6.75-6.85c.29-.3.76-.3,1.06,0,.29.29.3.77,0,1.06l-6.75,6.85c-.15.15-.34.22-.53.22Z" fill="#ffecd9"/><path d="M214.43,13.15c-.19,0-.39-.07-.53-.22l-6.75-6.85c-.29-.3-.29-.77,0-1.06.3-.29.77-.29,1.06,0l6.75,6.85c.29.3.29.77,0,1.06-.15.14-.34.22-.53.22Z" fill="#ffecd9"/><g clip-path="url(#f)"><path d="M201.28,2.6h-9.95c-.63,0-1.17.42-1.35,1h12.64c-.18-.58-.71-1-1.35-1" fill="#16f"/><path d="M202.63,3.59h-12.64c-.01.05-.03.1-.03.15h12.71c0-.05-.02-.1-.04-.15" fill="#16f"/><path d="M202.66,3.73h-12.71c0,.05-.02.1-.02.15h12.75c0-.05-.01-.1-.02-.15" fill="#16f"/><path d="M202.68,3.87h-12.75s0,.09,0,.14h0s12.76,0,12.76,0h0s0-.09,0-.14" fill="#1165ff"/><polyline points="202.69 4.01 189.93 4.01 189.93 4.15 202.69 4.15 202.69 4.01" fill="#1165ff"/><polyline points="202.69 4.15 189.93 4.15 189.93 4.29 202.69 4.28 202.69 4.15" fill="#1164ff"/><polyline points="202.69 4.28 189.93 4.29 189.93 4.43 202.69 4.42 202.69 4.28" fill="#1164ff"/><polyline points="202.69 4.42 189.93 4.43 189.93 4.57 202.69 4.56 202.69 4.42" fill="#1163ff"/><polyline points="202.69 4.56 189.93 4.57 189.93 4.71 202.69 4.7 202.69 4.56" fill="#1163ff"/><polyline points="202.69 4.7 189.93 4.71 189.93 4.85 202.69 4.84 202.69 4.7" fill="#1162ff"/><polyline points="202.69 4.84 189.93 4.85 189.93 4.99 202.69 4.98 202.69 4.84" fill="#1162ff"/><polyline points="202.69 4.98 189.93 4.99 189.93 5.13 202.69 5.12 202.69 4.98" fill="#1161ff"/><polyline points="202.69 5.12 189.93 5.13 189.93 5.27 202.69 5.26 202.69 5.12" fill="#1161ff"/><polyline points="202.69 5.26 189.93 5.27 189.93 5.41 202.69 5.4 202.69 5.26" fill="#1160ff"/><polyline points="202.69 5.4 189.93 5.41 189.93 5.55 202.69 5.54 202.69 5.4" fill="#1160ff"/><polyline points="202.69 5.54 189.93 5.55 189.93 5.69 202.69 5.68 202.69 5.54" fill="#115fff"/><polyline points="202.69 5.68 189.93 5.69 189.93 5.83 202.69 5.82 202.69 5.68" fill="#115fff"/><polyline points="202.69 5.82 189.93 5.83 189.93 5.96 202.69 5.96 202.69 5.82" fill="#115eff"/><polyline points="202.69 5.96 189.93 5.96 189.93 6.1 202.69 6.1 202.69 5.96" fill="#115eff"/><polyline points="202.69 6.1 189.93 6.1 189.93 6.24 202.69 6.24 202.69 6.1" fill="#115dff"/><polyline points="202.69 6.24 189.93 6.24 189.93 6.38 202.69 6.38 202.69 6.24" fill="#115dff"/><polyline points="202.69 6.38 189.93 6.38 189.93 6.52 202.69 6.52 202.69 6.38" fill="#115cff"/><polyline points="202.69 6.52 189.93 6.52 189.93 6.66 202.69 6.66 202.69 6.52" fill="#115bff"/><polyline points="202.69 6.66 189.93 6.66 189.93 6.8 202.69 6.79 202.69 6.66" fill="#115bff"/><polyline points="202.69 6.79 189.93 6.8 189.93 6.94 202.69 6.93 202.69 6.79" fill="#115aff"/><polyline points="202.69 6.93 189.93 6.94 189.93 7.08 202.69 7.07 202.69 6.93" fill="#115aff"/><polyline points="202.69 7.07 189.93 7.08 189.93 7.22 202.69 7.21 202.69 7.07" fill="#1159ff"/><polyline points="202.69 7.21 189.93 7.22 189.93 7.36 202.69 7.35 202.69 7.21" fill="#1159ff"/><polyline points="202.69 7.35 189.93 7.36 189.93 7.5 202.69 7.49 202.69 7.35" fill="#1158ff"/><polyline points="202.69 7.49 189.93 7.5 189.93 7.64 202.69 7.63 202.69 7.49" fill="#1158ff"/><polyline points="202.69 7.63 189.93 7.64 189.93 7.78 202.69 7.77 202.69 7.63" fill="#1157ff"/><polyline points="202.69 7.77 189.93 7.78 189.93 7.92 202.69 7.91 202.69 7.77" fill="#1157ff"/><polyline points="202.69 7.91 189.93 7.92 189.93 8.06 202.69 8.05 202.69 7.91" fill="#1156ff"/><polyline points="202.69 8.05 189.93 8.06 189.93 8.2 202.69 8.19 202.69 8.05" fill="#1156ff"/><polyline points="202.69 8.19 189.93 8.2 189.93 8.33 202.69 8.33 202.69 8.19" fill="#15f"/><polyline points="202.69 8.33 189.93 8.33 189.93 8.47 202.69 8.47 202.69 8.33" fill="#15f"/><polyline points="202.69 8.47 189.93 8.47 189.93 8.61 202.69 8.61 202.69 8.47" fill="#1154ff"/><polyline points="202.69 8.61 189.93 8.61 189.93 8.75 202.69 8.75 202.69 8.61" fill="#1154ff"/><polyline points="202.69 8.75 189.93 8.75 189.93 8.89 202.69 8.89 202.69 8.75" fill="#1153ff"/><polyline points="202.69 8.89 189.93 8.89 189.93 9.03 202.69 9.03 202.69 8.89" fill="#1153ff"/><polyline points="202.69 9.03 189.93 9.03 189.93 9.17 202.69 9.16 202.69 9.03" fill="#1152ff"/><polyline points="202.69 9.16 189.93 9.17 189.93 9.31 202.69 9.3 202.69 9.16" fill="#1152ff"/><polyline points="202.69 9.3 189.93 9.31 189.93 9.45 202.69 9.45 202.69 9.3" fill="#1152ff"/><polyline points="202.69 9.45 189.93 9.45 189.93 9.59 202.69 9.59 202.69 9.45" fill="#1052ff"/><polyline points="202.69 9.59 189.93 9.59 189.93 9.73 202.69 9.73 202.69 9.59" fill="#1052ff"/><polyline points="202.69 9.73 189.93 9.73 189.93 9.88 202.69 9.87 202.69 9.73" fill="#1052ff"/><polyline points="202.69 9.87 189.93 9.88 189.93 10.02 202.69 10.01 202.69 9.87" fill="#1052ff"/><polyline points="202.69 10.01 189.93 10.02 189.93 10.16 202.69 10.15 202.69 10.01" fill="#1052ff"/><polyline points="202.69 10.15 189.93 10.16 189.93 10.3 202.69 10.29 202.69 10.15" fill="#1052ff"/><polyline points="202.69 10.29 189.93 10.3 189.93 10.44 202.69 10.44 202.69 10.29" fill="#1052ff"/><polyline points="202.69 10.44 189.93 10.44 189.93 10.58 202.69 10.58 202.69 10.44" fill="#1052ff"/><polyline points="202.69 10.58 189.93 10.58 189.93 10.72 202.69 10.72 202.69 10.58" fill="#1052ff"/><polyline points="202.69 10.72 189.93 10.72 189.93 10.87 202.69 10.86 202.69 10.72" fill="#0f52ff"/><polyline points="202.69 10.86 189.93 10.87 189.93 11.01 202.69 11 202.69 10.86" fill="#0f52ff"/><polyline points="202.69 11 189.93 11.01 189.93 11.15 202.69 11.14 202.69 11" fill="#0f52ff"/><polyline points="202.69 11.14 189.93 11.15 189.93 11.29 202.69 11.28 202.69 11.14" fill="#0f52ff"/><polyline points="202.69 11.28 189.93 11.29 189.93 11.43 202.69 11.43 202.69 11.28" fill="#0f52ff"/><polyline points="202.69 11.43 189.93 11.43 189.93 11.57 202.69 11.57 202.69 11.43" fill="#0f52ff"/><polyline points="202.69 11.57 189.93 11.57 189.93 11.71 202.69 11.71 202.69 11.57" fill="#0f52ff"/><polyline points="202.69 11.71 189.93 11.71 189.93 11.86 202.69 11.85 202.69 11.71" fill="#0f52ff"/><polyline points="202.69 11.85 189.93 11.86 189.93 12 202.69 11.99 202.69 11.85" fill="#0f52ff"/><polyline points="202.69 11.99 189.93 12 189.93 12.14 202.69 12.13 202.69 11.99" fill="#0e52ff"/><polyline points="202.69 12.13 189.93 12.14 189.93 12.28 202.69 12.27 202.69 12.13" fill="#0e52ff"/><polyline points="202.69 12.27 189.93 12.28 189.93 12.42 202.69 12.42 202.69 12.27" fill="#0e52ff"/><polyline points="202.69 12.42 189.93 12.42 189.93 12.56 202.69 12.56 202.69 12.42" fill="#0e52ff"/><polyline points="202.69 12.56 189.93 12.56 189.93 12.7 202.69 12.7 202.69 12.56" fill="#0e52ff"/><polyline points="202.69 12.7 189.93 12.7 189.93 12.85 202.69 12.84 202.69 12.7" fill="#0e52ff"/><polyline points="202.69 12.84 189.93 12.85 189.93 12.99 202.69 12.98 202.69 12.84" fill="#0e52ff"/><polyline points="202.69 12.98 189.93 12.99 189.93 13.13 202.69 13.12 202.69 12.98" fill="#0e52ff"/><polyline points="202.69 13.12 189.93 13.13 189.93 13.27 202.69 13.26 202.69 13.12" fill="#0d52ff"/><polyline points="202.69 13.26 189.93 13.27 189.93 13.41 202.69 13.41 202.69 13.26" fill="#0d52ff"/><polyline points="202.69 13.41 189.93 13.41 189.93 13.55 202.69 13.55 202.69 13.41" fill="#0d52ff"/><polyline points="202.69 13.55 189.93 13.55 189.93 13.69 202.69 13.69 202.69 13.55" fill="#0d52ff"/><polyline points="202.69 13.69 189.93 13.69 189.93 13.84 202.69 13.83 202.69 13.69" fill="#0d52ff"/><path d="M202.69,13.83h-12.76v.12s0,.02,0,.03h12.76s0-.02,0-.03v-.12" fill="#0d52ff"/><path d="M202.69,13.97h-12.76c0,.05,0,.1,0,.15h12.74c0-.05,0-.1,0-.15" fill="#0d52ff"/><path d="M202.68,14.11h-12.74c0,.05.01.1.02.15h12.7c.01-.05.02-.1.02-.15" fill="#0d52ff"/><path d="M202.66,14.25h-12.7c.01.05.02.1.04.15h12.62c.02-.05.03-.1.04-.15" fill="#0d53ff"/><path d="M202.62,14.4h-12.62c.02.05.04.1.06.15h12.5c.02-.05.04-.1.06-.15" fill="#0c53ff"/><path d="M202.56,14.54h-12.5c.02.06.05.1.08.15h12.35c.03-.05.05-.1.07-.15" fill="#0c53ff"/><path d="M202.49,14.68h-12.35c.03.06.06.1.1.15h12.16c.04-.05.07-.1.1-.15" fill="#0c53ff"/><path d="M202.39,14.82h-12.16c.04.06.08.1.13.15h11.9c.05-.05.09-.1.13-.15" fill="#0c53ff"/><path d="M202.26,14.96h-11.9c.05.06.11.1.17.15h11.56c.06-.05.12-.1.17-.15" fill="#0c53ff"/><path d="M202.09,15.1h-11.56c.08.06.17.11.26.15h11.05c.09-.04.17-.09.25-.15" fill="#0c53ff"/><path d="M201.84,15.24h-11.05c.17.08.35.11.54.11h9.95c.2,0,.39-.04.56-.11" fill="#0c53ff"/></g><g clip-path="url(#g)"><path d="M186.2,2.6h-9.95c-.63,0-1.17.42-1.35,1h12.64c-.18-.58-.71-1-1.35-1" fill="#16f"/><path d="M187.55,3.59h-12.64c-.01.05-.03.1-.03.15h12.71c0-.05-.02-.1-.04-.15" fill="#16f"/><path d="M187.58,3.73h-12.71c0,.05-.02.1-.02.15h12.75c0-.05-.01-.1-.02-.15" fill="#16f"/><path d="M187.61,3.87h-12.75s0,.09,0,.14h0s12.76,0,12.76,0h0s0-.09,0-.14" fill="#1165ff"/><polyline points="187.61 4.01 174.85 4.01 174.85 4.15 187.61 4.15 187.61 4.01" fill="#1165ff"/><polyline points="187.61 4.15 174.85 4.15 174.85 4.29 187.61 4.28 187.61 4.15" fill="#1164ff"/><polyline points="187.61 4.28 174.85 4.29 174.85 4.43 187.61 4.42 187.61 4.28" fill="#1164ff"/><polyline points="187.61 4.42 174.85 4.43 174.85 4.57 187.61 4.56 187.61 4.42" fill="#1163ff"/><polyline points="187.61 4.56 174.85 4.57 174.85 4.71 187.61 4.7 187.61 4.56" fill="#1163ff"/><polyline points="187.61 4.7 174.85 4.71 174.85 4.85 187.61 4.84 187.61 4.7" fill="#1162ff"/><polyline points="187.61 4.84 174.85 4.85 174.85 4.99 187.61 4.98 187.61 4.84" fill="#1162ff"/><polyline points="187.61 4.98 174.85 4.99 174.85 5.13 187.61 5.12 187.61 4.98" fill="#1161ff"/><polyline points="187.61 5.12 174.85 5.13 174.85 5.27 187.61 5.26 187.61 5.12" fill="#1161ff"/><polyline points="187.61 5.26 174.85 5.27 174.85 5.41 187.61 5.4 187.61 5.26" fill="#1160ff"/><polyline points="187.61 5.4 174.85 5.41 174.85 5.55 187.61 5.54 187.61 5.4" fill="#1160ff"/><polyline points="187.61 5.54 174.85 5.55 174.85 5.69 187.61 5.68 187.61 5.54" fill="#115fff"/><polyline points="187.61 5.68 174.85 5.69 174.85 5.83 187.61 5.82 187.61 5.68" fill="#115fff"/><polyline points="187.61 5.82 174.85 5.83 174.85 5.96 187.61 5.96 187.61 5.82" fill="#115eff"/><polyline points="187.61 5.96 174.85 5.96 174.85 6.1 187.61 6.1 187.61 5.96" fill="#115eff"/><polyline points="187.61 6.1 174.85 6.1 174.85 6.24 187.61 6.24 187.61 6.1" fill="#115dff"/><polyline points="187.61 6.24 174.85 6.24 174.85 6.38 187.61 6.38 187.61 6.24" fill="#115dff"/><polyline points="187.61 6.38 174.85 6.38 174.85 6.52 187.61 6.52 187.61 6.38" fill="#115cff"/><polyline points="187.61 6.52 174.85 6.52 174.85 6.66 187.61 6.66 187.61 6.52" fill="#115bff"/><polyline points="187.61 6.66 174.85 6.66 174.85 6.8 187.61 6.79 187.61 6.66" fill="#115bff"/><polyline points="187.61 6.79 174.85 6.8 174.85 6.94 187.61 6.93 187.61 6.79" fill="#115aff"/><polyline points="187.61 6.93 174.85 6.94 174.85 7.08 187.61 7.07 187.61 6.93" fill="#115aff"/><polyline points="187.61 7.07 174.85 7.08 174.85 7.22 187.61 7.21 187.61 7.07" fill="#1159ff"/><polyline points="187.61 7.21 174.85 7.22 174.85 7.36 187.61 7.35 187.61 7.21" fill="#1159ff"/><polyline points="187.61 7.35 174.85 7.36 174.85 7.5 187.61 7.49 187.61 7.35" fill="#1158ff"/><polyline points="187.61 7.49 174.85 7.5 174.85 7.64 187.61 7.63 187.61 7.49" fill="#1158ff"/><polyline points="187.61 7.63 174.85 7.64 174.85 7.78 187.61 7.77 187.61 7.63" fill="#1157ff"/><polyline points="187.61 7.77 174.85 7.78 174.85 7.92 187.61 7.91 187.61 7.77" fill="#1157ff"/><polyline points="187.61 7.91 174.85 7.92 174.85 8.06 187.61 8.05 187.61 7.91" fill="#1156ff"/><polyline points="187.61 8.05 174.85 8.06 174.85 8.2 187.61 8.19 187.61 8.05" fill="#1156ff"/><polyline points="187.61 8.19 174.85 8.2 174.85 8.33 187.61 8.33 187.61 8.19" fill="#15f"/><polyline points="187.61 8.33 174.85 8.33 174.85 8.47 187.61 8.47 187.61 8.33" fill="#15f"/><polyline points="187.61 8.47 174.85 8.47 174.85 8.61 187.61 8.61 187.61 8.47" fill="#1154ff"/><polyline points="187.61 8.61 174.85 8.61 174.85 8.75 187.61 8.75 187.61 8.61" fill="#1154ff"/><polyline points="187.61 8.75 174.85 8.75 174.85 8.89 187.61 8.89 187.61 8.75" fill="#1153ff"/><polyline points="187.61 8.89 174.85 8.89 174.85 9.03 187.61 9.03 187.61 8.89" fill="#1153ff"/><polyline points="187.61 9.03 174.85 9.03 174.85 9.17 187.61 9.16 187.61 9.03" fill="#1152ff"/><polyline points="187.61 9.16 174.85 9.17 174.85 9.31 187.61 9.3 187.61 9.16" fill="#1152ff"/><polyline points="187.61 9.3 174.85 9.31 174.85 9.45 187.61 9.45 187.61 9.3" fill="#1152ff"/><polyline points="187.61 9.45 174.85 9.45 174.85 9.59 187.61 9.59 187.61 9.45" fill="#1052ff"/><polyline points="187.61 9.59 174.85 9.59 174.85 9.73 187.61 9.73 187.61 9.59" fill="#1052ff"/><polyline points="187.61 9.73 174.85 9.73 174.85 9.88 187.61 9.87 187.61 9.73" fill="#1052ff"/><polyline points="187.61 9.87 174.85 9.88 174.85 10.02 187.61 10.01 187.61 9.87" fill="#1052ff"/><polyline points="187.61 10.01 174.85 10.02 174.85 10.16 187.61 10.15 187.61 10.01" fill="#1052ff"/><polyline points="187.61 10.15 174.85 10.16 174.85 10.3 187.61 10.29 187.61 10.15" fill="#1052ff"/><polyline points="187.61 10.29 174.85 10.3 174.85 10.44 187.61 10.44 187.61 10.29" fill="#1052ff"/><polyline points="187.61 10.44 174.85 10.44 174.85 10.58 187.61 10.58 187.61 10.44" fill="#1052ff"/><polyline points="187.61 10.58 174.85 10.58 174.85 10.72 187.61 10.72 187.61 10.58" fill="#1052ff"/><polyline points="187.61 10.72 174.85 10.72 174.85 10.87 187.61 10.86 187.61 10.72" fill="#0f52ff"/><polyline points="187.61 10.86 174.85 10.87 174.85 11.01 187.61 11 187.61 10.86" fill="#0f52ff"/><polyline points="187.61 11 174.85 11.01 174.85 11.15 187.61 11.14 187.61 11" fill="#0f52ff"/><polyline points="187.61 11.14 174.85 11.15 174.85 11.29 187.61 11.28 187.61 11.14" fill="#0f52ff"/><polyline points="187.61 11.28 174.85 11.29 174.85 11.43 187.61 11.43 187.61 11.28" fill="#0f52ff"/><polyline points="187.61 11.43 174.85 11.43 174.85 11.57 187.61 11.57 187.61 11.43" fill="#0f52ff"/><polyline points="187.61 11.57 174.85 11.57 174.85 11.71 187.61 11.71 187.61 11.57" fill="#0f52ff"/><polyline points="187.61 11.71 174.85 11.71 174.85 11.86 187.61 11.85 187.61 11.71" fill="#0f52ff"/><polyline points="187.61 11.85 174.85 11.86 174.85 12 187.61 11.99 187.61 11.85" fill="#0f52ff"/><polyline points="187.61 11.99 174.85 12 174.85 12.14 187.61 12.13 187.61 11.99" fill="#0e52ff"/><polyline points="187.61 12.13 174.85 12.14 174.85 12.28 187.61 12.27 187.61 12.13" fill="#0e52ff"/><polyline points="187.61 12.27 174.85 12.28 174.85 12.42 187.61 12.42 187.61 12.27" fill="#0e52ff"/><polyline points="187.61 12.42 174.85 12.42 174.85 12.56 187.61 12.56 187.61 12.42" fill="#0e52ff"/><polyline points="187.61 12.56 174.85 12.56 174.85 12.7 187.61 12.7 187.61 12.56" fill="#0e52ff"/><polyline points="187.61 12.7 174.85 12.7 174.85 12.85 187.61 12.84 187.61 12.7" fill="#0e52ff"/><polyline points="187.61 12.84 174.85 12.85 174.85 12.99 187.61 12.98 187.61 12.84" fill="#0e52ff"/><polyline points="187.61 12.98 174.85 12.99 174.85 13.13 187.61 13.12 187.61 12.98" fill="#0e52ff"/><polyline points="187.61 13.12 174.85 13.13 174.85 13.27 187.61 13.26 187.61 13.12" fill="#0d52ff"/><polyline points="187.61 13.26 174.85 13.27 174.85 13.41 187.61 13.41 187.61 13.26" fill="#0d52ff"/><polyline points="187.61 13.41 174.85 13.41 174.85 13.55 187.61 13.55 187.61 13.41" fill="#0d52ff"/><polyline points="187.61 13.55 174.85 13.55 174.85 13.69 187.61 13.69 187.61 13.55" fill="#0d52ff"/><polyline points="187.61 13.69 174.85 13.69 174.85 13.84 187.61 13.83 187.61 13.69" fill="#0d52ff"/><path d="M187.61,13.83h-12.76v.12s0,.02,0,.03h12.76s0-.02,0-.03v-.12" fill="#0d52ff"/><path d="M187.61,13.97h-12.76c0,.05,0,.1,0,.15h12.74c0-.05,0-.1,0-.15" fill="#0d52ff"/><path d="M187.6,14.11h-12.74c0,.05.01.1.02.15h12.7c.01-.05.02-.1.02-.15" fill="#0d52ff"/><path d="M187.58,14.25h-12.7c.01.05.02.1.04.15h12.62c.02-.05.03-.1.04-.15" fill="#0d53ff"/><path d="M187.54,14.4h-12.62c.02.05.04.1.06.15h12.5c.02-.05.04-.1.06-.15" fill="#0c53ff"/><path d="M187.48,14.54h-12.5c.02.06.05.1.08.15h12.35c.03-.05.05-.1.07-.15" fill="#0c53ff"/><path d="M187.41,14.68h-12.35c.03.06.06.1.1.15h12.16c.04-.05.07-.1.1-.15" fill="#0c53ff"/><path d="M187.31,14.82h-12.16c.04.06.08.1.13.15h11.9c.05-.05.09-.1.13-.15" fill="#0c53ff"/><path d="M187.18,14.96h-11.9c.05.06.11.1.17.15h11.56c.06-.05.12-.1.17-.15" fill="#0c53ff"/><path d="M187.01,15.1h-11.56c.08.06.17.11.26.15h11.05c.09-.04.17-.09.25-.15" fill="#0c53ff"/><path d="M186.76,15.24h-11.05c.17.08.35.11.54.11h9.95c.2,0,.39-.04.56-.11" fill="#0c53ff"/></g></svg>