<?xml version="1.0" encoding="UTF-8"?><svg id="a" xmlns="http://www.w3.org/2000/svg" width="3.85in" height="3.4in" xmlns:xlink="http://www.w3.org/1999/xlink" viewBox="0 0 277.2 244.83"><defs><clipPath id="b"><path d="M27.65,21.08h205.61c2.15,0,3.89,1.74,3.89,3.89v210.32c0,2.15-1.74,3.89-3.89,3.89H27.65c-2.15,0-3.89-1.74-3.89-3.89V24.97c0-2.15,1.74-3.89,3.89-3.89" fill="none"/></clipPath><clipPath id="c"><polyline points="23.76 21.08 237.14 21.08 237.14 239.17 23.76 239.17 23.76 21.08" fill="none"/></clipPath><clipPath id="d"><polyline points="253.44 0 0 0 0 38.74 15.36 38.74 15.36 244.83 26.01 244.83 26.01 38.74 235.16 38.74 235.16 244.83 245.54 244.83 245.54 38.74 253.44 38.74 253.44 0" fill="none"/></clipPath><clipPath id="e"><path d="M223.8,23.67h9.94c.78,0,1.41.63,1.41,1.41v9.94c0,.78-.63,1.41-1.41,1.41h-9.94c-.78,0-1.41-.63-1.41-1.41v-9.94c0-.78.63-1.41,1.41-1.41" fill="none"/></clipPath><clipPath id="f"><path d="M209.22,23.67h9.94c.78,0,1.41.63,1.41,1.41v9.94c0,.78-.63,1.41-1.41,1.41h-9.94c-.78,0-1.41-.63-1.41-1.41v-9.94c0-.78.63-1.41,1.41-1.41" fill="none"/></clipPath><clipPath id="g"><path d="M194.14,23.67h9.94c.78,0,1.41.63,1.41,1.41v9.94c0,.78-.63,1.41-1.41,1.41h-9.94c-.78,0-1.41-.63-1.41-1.41v-9.94c0-.78.63-1.41,1.41-1.41" fill="none"/></clipPath></defs><rect x="23.76" y="36.43" width="211.39" height="193.42" fill="#fff"/><g clip-path="url(#b)"><g clip-path="url(#c)"><rect x="23.76" y="38.74" width="253.44" height="12.39" fill="#ffdce7"/><rect x="17.96" y="226.77" width="253.44" height="12.39" fill="#ffdce7"/><g clip-path="url(#d)"><polyline points="253.44 66.53 0 66.64 0 0 253.44 0 253.44 66.53" fill="#0584ff"/><rect x="0" y="66.58" width="253.44" height="2.24" fill="#0584ff"/><rect x="0" y="68.83" width="253.44" height="2.24" fill="#0583fe"/><rect x="0" y="71.07" width="253.44" height="2.24" fill="#0582fd"/><rect x="0" y="73.32" width="253.44" height="2.24" fill="#0581fc"/><rect x="0" y="75.56" width="253.44" height="2.24" fill="#0580fc"/><rect x="0" y="77.81" width="253.44" height="2.24" fill="#057ffb"/><rect x="0" y="80.05" width="253.44" height="2.24" fill="#057efa"/><rect x="0" y="82.3" width="253.44" height="2.24" fill="#057df9"/><rect x="0" y="84.54" width="253.44" height="2.24" fill="#057bf8"/><rect x="0" y="86.79" width="253.44" height="2.24" fill="#057af7"/><rect x="0" y="89.03" width="253.44" height="2.24" fill="#0579f6"/><rect x="0" y="91.28" width="253.44" height="2.24" fill="#0578f6"/><rect x="0" y="93.52" width="253.44" height="2.24" fill="#0577f5"/><rect x="0" y="95.77" width="253.44" height="2.24" fill="#0576f4"/><rect x="0" y="98.01" width="253.44" height="2.24" fill="#0575f3"/><rect x="0" y="100.26" width="253.44" height="2.86" fill="#0575f3"/><rect x="0" y="103.12" width="253.44" height="2.86" fill="#0574f2"/><rect x="0" y="105.98" width="253.44" height="2.86" fill="#0573f1"/><rect x="0" y="108.85" width="253.44" height="2.86" fill="#0572f1"/><rect x="0" y="111.71" width="253.44" height="2.86" fill="#0571f0"/><rect x="0" y="114.57" width="253.44" height="2.86" fill="#0670ef"/><rect x="0" y="117.43" width="253.44" height="2.86" fill="#066fee"/><rect x="0" y="120.3" width="253.44" height="2.86" fill="#066eed"/><rect x="0" y="123.16" width="253.44" height="2.86" fill="#066dec"/><rect x="0" y="126.02" width="253.44" height="2.86" fill="#066cec"/><rect x="0" y="128.89" width="253.44" height="2.86" fill="#066aeb"/><rect x="0" y="131.75" width="253.44" height="2.86" fill="#0669ea"/><rect x="0" y="134.61" width="253.44" height="2.86" fill="#0668e9"/><rect x="0" y="137.48" width="253.44" height="2.86" fill="#0667e8"/><rect x="0" y="140.34" width="253.44" height="2.86" fill="#0766e7"/><rect x="0" y="143.2" width="253.44" height="2.86" fill="#0765e7"/><rect x="0" y="146.06" width="253.44" height="2.86" fill="#0764e6"/><rect x="0" y="148.93" width="253.44" height="2.86" fill="#0763e5"/><rect x="0" y="151.79" width="253.44" height="2.86" fill="#0762e4"/><rect x="0" y="154.65" width="253.44" height="4.75" fill="#0762e4"/><rect x="0" y="159.4" width="253.44" height="4.75" fill="#0761e3"/><rect x="0" y="164.15" width="253.44" height="4.75" fill="#0760e2"/><rect x="0" y="168.9" width="253.44" height="4.75" fill="#075fe2"/><rect x="0" y="173.65" width="253.44" height="4.75" fill="#075ee1"/><rect x="0" y="178.4" width="253.44" height="4.75" fill="#075de0"/><rect x="0" y="183.15" width="253.44" height="4.75" fill="#075bdf"/><rect x="0" y="187.9" width="253.44" height="4.75" fill="#075ade"/><rect x="0" y="192.65" width="253.44" height="4.75" fill="#0759dd"/><rect x="0" y="197.39" width="253.44" height="4.75" fill="#0758dd"/><rect x="0" y="202.14" width="253.44" height="4.75" fill="#0757dc"/><rect x="0" y="206.89" width="253.44" height="4.75" fill="#0756db"/><rect x="0" y="211.64" width="253.44" height="20.72" fill="#0756db"/><polygon points="0 232.42 253.44 232.31 253.44 244.83 0 244.83 0 232.42" fill="#0855da"/></g></g></g><g clip-path="url(#e)"><polygon points="235.14 24.64 222.39 24.65 222.39 23.67 235.14 23.67 235.14 24.64" fill="#ed4524"/><rect x="222.39" y="24.65" width="12.75" height=".14" fill="#ed4524"/><rect x="222.39" y="24.79" width="12.75" height=".14" fill="#ed4424"/><rect x="222.39" y="24.93" width="12.75" height=".14" fill="#ed4324"/><rect x="222.39" y="25.07" width="12.75" height=".14" fill="#ed4224"/><rect x="222.39" y="25.21" width="12.75" height=".14" fill="#ed4124"/><rect x="222.39" y="25.35" width="12.75" height=".14" fill="#ed4024"/><rect x="222.39" y="25.49" width="12.75" height=".14" fill="#ed3f24"/><rect x="222.39" y="25.63" width="12.75" height=".14" fill="#ed3e24"/><rect x="222.39" y="25.77" width="12.75" height=".14" fill="#ed3d24"/><rect x="222.39" y="25.91" width="12.75" height=".14" fill="#ed3c24"/><rect x="222.39" y="26.05" width="12.75" height=".14" fill="#ed3b24"/><rect x="222.39" y="26.19" width="12.75" height=".14" fill="#ed3a24"/><rect x="222.39" y="26.33" width="12.75" height=".14" fill="#ed3924"/><rect x="222.39" y="26.47" width="12.75" height=".14" fill="#ed3824"/><rect x="222.39" y="26.61" width="12.75" height=".14" fill="#ed3724"/><rect x="222.39" y="26.75" width="12.75" height=".14" fill="#ed3624"/><rect x="222.39" y="26.89" width="12.75" height=".14" fill="#ed3524"/><rect x="222.39" y="27.03" width="12.75" height=".14" fill="#ed3424"/><rect x="222.39" y="27.17" width="12.75" height=".14" fill="#ed3324"/><rect x="222.39" y="27.31" width="12.75" height=".14" fill="#ed3224"/><rect x="222.39" y="27.45" width="12.75" height=".14" fill="#ed3124"/><rect x="222.39" y="27.59" width="12.75" height=".14" fill="#ed2f24"/><rect x="222.39" y="27.73" width="12.75" height=".14" fill="#ed2e24"/><rect x="222.39" y="27.87" width="12.75" height=".14" fill="#ed2d24"/><rect x="222.39" y="28.01" width="12.75" height=".14" fill="#ed2c24"/><rect x="222.39" y="28.15" width="12.75" height=".14" fill="#ed2b24"/><rect x="222.39" y="28.29" width="12.75" height=".14" fill="#ed2a24"/><rect x="222.39" y="28.43" width="12.75" height=".14" fill="#ed2924"/><rect x="222.39" y="28.57" width="12.75" height=".14" fill="#ed2824"/><rect x="222.39" y="28.71" width="12.75" height=".14" fill="#ed2724"/><rect x="222.39" y="28.85" width="12.75" height=".14" fill="#ed2624"/><rect x="222.39" y="28.99" width="12.75" height=".14" fill="#ed2524"/><rect x="222.39" y="29.13" width="12.75" height=".14" fill="#ed2424"/><rect x="222.39" y="29.27" width="12.75" height=".14" fill="#ed2324"/><rect x="222.39" y="29.41" width="12.75" height=".14" fill="#ed2224"/><rect x="222.39" y="29.55" width="12.75" height=".14" fill="#ed2124"/><rect x="222.39" y="29.69" width="12.75" height=".14" fill="#ed2024"/><rect x="222.39" y="29.83" width="12.75" height=".14" fill="#ed1f24"/><rect x="222.39" y="29.97" width="12.75" height=".14" fill="#ed1e24"/><rect x="222.39" y="30.11" width="12.75" height=".14" fill="#ed1d24"/><rect x="222.39" y="30.25" width="12.75" height=".14" fill="#ed1c24"/><rect x="222.39" y="30.39" width="12.75" height=".14" fill="#ed1c24"/><rect x="222.39" y="30.53" width="12.75" height=".14" fill="#ec1c24"/><rect x="222.39" y="30.67" width="12.75" height=".14" fill="#eb1c24"/><rect x="222.39" y="30.81" width="12.75" height=".14" fill="#ea1c25"/><rect x="222.39" y="30.95" width="12.75" height=".14" fill="#e91c25"/><rect x="222.39" y="31.1" width="12.75" height=".14" fill="#e81c25"/><rect x="222.39" y="31.24" width="12.75" height=".14" fill="#e71c25"/><rect x="222.39" y="31.38" width="12.75" height=".14" fill="#e61c25"/><rect x="222.39" y="31.52" width="12.75" height=".14" fill="#e51c26"/><rect x="222.39" y="31.66" width="12.75" height=".14" fill="#e41c26"/><rect x="222.39" y="31.8" width="12.75" height=".14" fill="#e31c26"/><rect x="222.39" y="31.94" width="12.75" height=".14" fill="#e21c26"/><rect x="222.39" y="32.08" width="12.75" height=".14" fill="#e11d26"/><rect x="222.39" y="32.23" width="12.75" height=".14" fill="#e01d27"/><rect x="222.39" y="32.37" width="12.75" height=".14" fill="#df1d27"/><rect x="222.39" y="32.51" width="12.75" height=".14" fill="#de1d27"/><rect x="222.39" y="32.65" width="12.75" height=".14" fill="#dd1d27"/><rect x="222.39" y="32.79" width="12.75" height=".14" fill="#dc1d27"/><rect x="222.39" y="32.93" width="12.75" height=".14" fill="#db1d28"/><rect x="222.39" y="33.07" width="12.75" height=".14" fill="#da1d28"/><rect x="222.39" y="33.21" width="12.75" height=".14" fill="#d91d28"/><rect x="222.39" y="33.35" width="12.75" height=".14" fill="#d81d28"/><rect x="222.39" y="33.5" width="12.75" height=".14" fill="#d71d28"/><rect x="222.39" y="33.64" width="12.75" height=".14" fill="#d61d29"/><rect x="222.39" y="33.78" width="12.75" height=".14" fill="#d41d29"/><rect x="222.39" y="33.92" width="12.75" height=".14" fill="#d31d29"/><rect x="222.39" y="34.06" width="12.75" height=".14" fill="#d21d29"/><rect x="222.39" y="34.2" width="12.75" height=".14" fill="#d11d29"/><rect x="222.39" y="34.34" width="12.75" height=".14" fill="#d01d29"/><rect x="222.39" y="34.48" width="12.75" height=".14" fill="#cf1d2a"/><rect x="222.39" y="34.63" width="12.75" height=".14" fill="#ce1d2a"/><rect x="222.39" y="34.77" width="12.75" height=".14" fill="#cd1d2a"/><rect x="222.39" y="34.91" width="12.75" height=".14" fill="#cc1d2a"/><rect x="222.39" y="35.05" width="12.75" height=".14" fill="#cb1d2a"/><rect x="222.39" y="35.19" width="12.75" height=".14" fill="#ca1d2b"/><rect x="222.39" y="35.33" width="12.75" height=".14" fill="#c91e2b"/><rect x="222.39" y="35.47" width="12.75" height=".14" fill="#c81e2b"/><rect x="222.39" y="35.61" width="12.75" height=".14" fill="#c71e2b"/><rect x="222.39" y="35.76" width="12.75" height=".14" fill="#c61e2b"/><rect x="222.39" y="35.9" width="12.75" height=".14" fill="#c51e2c"/><rect x="222.39" y="36.04" width="12.75" height=".14" fill="#c41e2c"/><rect x="222.39" y="36.18" width="12.75" height=".14" fill="#c31e2c"/><polygon points="222.39 36.32 235.14 36.31 235.14 36.42 222.39 36.42 222.39 36.32" fill="#c21e2c"/></g><path d="M225.4,34.22c-.19,0-.38-.07-.53-.22-.29-.29-.3-.77,0-1.06l6.75-6.85c.29-.29.76-.3,1.06,0,.29.29.3.77,0,1.06l-6.75,6.85c-.15.15-.34.22-.53.22Z" fill="#ffecd9"/><path d="M232.15,34.22c-.19,0-.39-.07-.53-.22l-6.75-6.85c-.29-.29-.29-.77,0-1.06.29-.29.77-.29,1.06,0l6.75,6.85c.29.29.29.77,0,1.06-.15.14-.34.22-.53.22Z" fill="#ffecd9"/><g clip-path="url(#f)"><path d="M219.15,23.67h-9.94c-.63,0-1.16.41-1.34.98h12.62c-.18-.57-.71-.98-1.34-.98" fill="#16f"/><path d="M220.49,24.64h-12.62c-.01.06-.03.1-.04.15h12.69c-.01-.06-.02-.1-.04-.15" fill="#16f"/><path d="M220.53,24.78h-12.69c0,.06-.02.1-.02.15h12.74c0-.06-.01-.1-.02-.15" fill="#16f"/><path d="M220.55,24.92h-12.74c0,.06,0,.1,0,.15h12.75c0-.06,0-.1,0-.15" fill="#1165ff"/><path d="M220.56,25.06h-12.75v.15h12.75v-.13s0-.01,0-.02" fill="#1165ff"/><polyline points="220.56 25.2 207.81 25.21 207.81 25.35 220.56 25.34 220.56 25.2" fill="#1164ff"/><polyline points="220.56 25.34 207.81 25.35 207.81 25.49 220.56 25.48 220.56 25.34" fill="#1164ff"/><polyline points="220.56 25.48 207.81 25.49 207.81 25.63 220.56 25.62 220.56 25.48" fill="#1163ff"/><polyline points="220.56 25.62 207.81 25.63 207.81 25.77 220.56 25.76 220.56 25.62" fill="#1163ff"/><polyline points="220.56 25.76 207.81 25.77 207.81 25.91 220.56 25.9 220.56 25.76" fill="#1162ff"/><polyline points="220.56 25.9 207.81 25.91 207.81 26.05 220.56 26.04 220.56 25.9" fill="#1162ff"/><polyline points="220.56 26.04 207.81 26.05 207.81 26.19 220.56 26.18 220.56 26.04" fill="#1161ff"/><polyline points="220.56 26.18 207.81 26.19 207.81 26.33 220.56 26.32 220.56 26.18" fill="#1161ff"/><polyline points="220.56 26.32 207.81 26.33 207.81 26.47 220.56 26.46 220.56 26.32" fill="#1160ff"/><polyline points="220.56 26.46 207.81 26.47 207.81 26.61 220.56 26.6 220.56 26.46" fill="#1160ff"/><polyline points="220.56 26.6 207.81 26.61 207.81 26.75 220.56 26.74 220.56 26.6" fill="#115fff"/><polyline points="220.56 26.74 207.81 26.75 207.81 26.89 220.56 26.88 220.56 26.74" fill="#115fff"/><polyline points="220.56 26.88 207.81 26.89 207.81 27.03 220.56 27.02 220.56 26.88" fill="#115eff"/><polyline points="220.56 27.02 207.81 27.03 207.81 27.17 220.56 27.16 220.56 27.02" fill="#115eff"/><polyline points="220.56 27.16 207.81 27.17 207.81 27.31 220.56 27.3 220.56 27.16" fill="#115dff"/><polyline points="220.56 27.3 207.81 27.31 207.81 27.45 220.56 27.44 220.56 27.3" fill="#115dff"/><polyline points="220.56 27.44 207.81 27.45 207.81 27.59 220.56 27.58 220.56 27.44" fill="#115cff"/><polyline points="220.56 27.58 207.81 27.59 207.81 27.73 220.56 27.72 220.56 27.58" fill="#115bff"/><polyline points="220.56 27.72 207.81 27.73 207.81 27.87 220.56 27.86 220.56 27.72" fill="#115bff"/><polyline points="220.56 27.86 207.81 27.87 207.81 28.01 220.56 28 220.56 27.86" fill="#115aff"/><polyline points="220.56 28 207.81 28.01 207.81 28.15 220.56 28.14 220.56 28" fill="#115aff"/><polyline points="220.56 28.14 207.81 28.15 207.81 28.29 220.56 28.28 220.56 28.14" fill="#1159ff"/><polyline points="220.56 28.28 207.81 28.29 207.81 28.43 220.56 28.42 220.56 28.28" fill="#1159ff"/><polyline points="220.56 28.42 207.81 28.43 207.81 28.57 220.56 28.56 220.56 28.42" fill="#1158ff"/><polyline points="220.56 28.56 207.81 28.57 207.81 28.71 220.56 28.7 220.56 28.56" fill="#1158ff"/><polyline points="220.56 28.7 207.81 28.71 207.81 28.85 220.56 28.84 220.56 28.7" fill="#1157ff"/><polyline points="220.56 28.84 207.81 28.85 207.81 28.99 220.56 28.98 220.56 28.84" fill="#1157ff"/><polyline points="220.56 28.98 207.81 28.99 207.81 29.13 220.56 29.12 220.56 28.98" fill="#1156ff"/><polyline points="220.56 29.12 207.81 29.13 207.81 29.27 220.56 29.26 220.56 29.12" fill="#1156ff"/><polyline points="220.56 29.26 207.81 29.27 207.81 29.41 220.56 29.4 220.56 29.26" fill="#15f"/><polyline points="220.56 29.4 207.81 29.41 207.81 29.55 220.56 29.54 220.56 29.4" fill="#15f"/><polyline points="220.56 29.54 207.81 29.55 207.81 29.69 220.56 29.68 220.56 29.54" fill="#1154ff"/><polyline points="220.56 29.68 207.81 29.69 207.81 29.83 220.56 29.82 220.56 29.68" fill="#1154ff"/><polyline points="220.56 29.82 207.81 29.83 207.81 29.97 220.56 29.96 220.56 29.82" fill="#1153ff"/><polyline points="220.56 29.96 207.81 29.97 207.81 30.11 220.56 30.1 220.56 29.96" fill="#1153ff"/><polyline points="220.56 30.1 207.81 30.11 207.81 30.25 220.56 30.24 220.56 30.1" fill="#1152ff"/><polyline points="220.56 30.24 207.81 30.25 207.81 30.39 220.56 30.38 220.56 30.24" fill="#1152ff"/><polyline points="220.56 30.38 207.81 30.39 207.81 30.54 220.56 30.53 220.56 30.38" fill="#1152ff"/><polyline points="220.56 30.53 207.81 30.54 207.81 30.68 220.56 30.67 220.56 30.53" fill="#1052ff"/><polyline points="220.56 30.67 207.81 30.68 207.81 30.82 220.56 30.81 220.56 30.67" fill="#1052ff"/><polyline points="220.56 30.81 207.81 30.82 207.81 30.96 220.56 30.95 220.56 30.81" fill="#1052ff"/><polyline points="220.56 30.95 207.81 30.96 207.81 31.1 220.56 31.09 220.56 30.95" fill="#1052ff"/><polyline points="220.56 31.09 207.81 31.1 207.81 31.24 220.56 31.23 220.56 31.09" fill="#1052ff"/><polyline points="220.56 31.23 207.81 31.24 207.81 31.38 220.56 31.37 220.56 31.23" fill="#1052ff"/><polyline points="220.56 31.37 207.81 31.38 207.81 31.52 220.56 31.51 220.56 31.37" fill="#1052ff"/><polyline points="220.56 31.51 207.81 31.52 207.81 31.67 220.56 31.66 220.56 31.51" fill="#1052ff"/><polyline points="220.56 31.66 207.81 31.67 207.81 31.81 220.56 31.8 220.56 31.66" fill="#1052ff"/><polyline points="220.56 31.8 207.81 31.81 207.81 31.95 220.56 31.94 220.56 31.8" fill="#0f52ff"/><polyline points="220.56 31.94 207.81 31.95 207.81 32.09 220.56 32.08 220.56 31.94" fill="#0f52ff"/><polyline points="220.56 32.08 207.81 32.09 207.81 32.23 220.56 32.22 220.56 32.08" fill="#0f52ff"/><polyline points="220.56 32.22 207.81 32.23 207.81 32.37 220.56 32.36 220.56 32.22" fill="#0f52ff"/><polyline points="220.56 32.36 207.81 32.37 207.81 32.51 220.56 32.5 220.56 32.36" fill="#0f52ff"/><polyline points="220.56 32.5 207.81 32.51 207.81 32.65 220.56 32.64 220.56 32.5" fill="#0f52ff"/><polyline points="220.56 32.64 207.81 32.65 207.81 32.79 220.56 32.78 220.56 32.64" fill="#0f52ff"/><polyline points="220.56 32.78 207.81 32.79 207.81 32.94 220.56 32.93 220.56 32.78" fill="#0f52ff"/><polyline points="220.56 32.93 207.81 32.94 207.81 33.08 220.56 33.07 220.56 32.93" fill="#0f52ff"/><polyline points="220.56 33.07 207.81 33.08 207.81 33.22 220.56 33.21 220.56 33.07" fill="#0e52ff"/><polyline points="220.56 33.21 207.81 33.22 207.81 33.36 220.56 33.35 220.56 33.21" fill="#0e52ff"/><polyline points="220.56 33.35 207.81 33.36 207.81 33.5 220.56 33.49 220.56 33.35" fill="#0e52ff"/><polyline points="220.56 33.49 207.81 33.5 207.81 33.64 220.56 33.63 220.56 33.49" fill="#0e52ff"/><polyline points="220.56 33.63 207.81 33.64 207.81 33.78 220.56 33.77 220.56 33.63" fill="#0e52ff"/><polyline points="220.56 33.77 207.81 33.78 207.81 33.92 220.56 33.91 220.56 33.77" fill="#0e52ff"/><polyline points="220.56 33.91 207.81 33.92 207.81 34.07 220.56 34.06 220.56 33.91" fill="#0e52ff"/><polyline points="220.56 34.06 207.81 34.07 207.81 34.21 220.56 34.2 220.56 34.06" fill="#0e52ff"/><polyline points="220.56 34.2 207.81 34.21 207.81 34.35 220.56 34.34 220.56 34.2" fill="#0d52ff"/><polyline points="220.56 34.34 207.81 34.35 207.81 34.49 220.56 34.48 220.56 34.34" fill="#0d52ff"/><polyline points="220.56 34.48 207.81 34.49 207.81 34.63 220.56 34.62 220.56 34.48" fill="#0d52ff"/><polyline points="220.56 34.62 207.81 34.63 207.81 34.77 220.56 34.76 220.56 34.62" fill="#0d52ff"/><polyline points="220.56 34.76 207.81 34.77 207.81 34.91 220.56 34.9 220.56 34.76" fill="#0d52ff"/><path d="M220.56,34.9h-12.75v.11s0,.03,0,.04h12.75s0-.03,0-.04v-.11" fill="#0d52ff"/><path d="M220.56,35.04h-12.75c0,.06,0,.1.01.15h12.73c0-.06,0-.1,0-.15" fill="#0d52ff"/><path d="M220.55,35.19h-12.73c0,.06.01.1.03.15h12.68c.01-.06.02-.1.02-.15" fill="#0d52ff"/><path d="M220.53,35.33h-12.68c.01.06.02.11.04.15h12.6c.02-.06.03-.1.04-.15" fill="#0d53ff"/><path d="M220.49,35.47h-12.6c.02.06.04.11.06.15h12.49c.02-.06.04-.1.06-.15" fill="#0c53ff"/><path d="M220.43,35.61h-12.49c.02.06.05.11.08.15h12.33c.03-.06.05-.1.08-.15" fill="#0c53ff"/><path d="M220.35,35.75h-12.33c.03.06.06.11.1.15h12.13c.04-.05.07-.1.1-.15" fill="#0c53ff"/><path d="M220.26,35.89h-12.13c.04.06.08.11.13.15h11.87c.05-.05.09-.1.13-.15" fill="#0c53ff"/><path d="M220.13,36.03h-11.87c.05.06.11.11.18.15h11.52c.06-.05.12-.1.17-.15" fill="#0c53ff"/><path d="M219.95,36.17h-11.52c.08.07.17.11.27.15h11c.09-.05.18-.09.26-.15" fill="#0c53ff"/><path d="M219.69,36.32h-11c.16.07.34.11.52.11h9.94c.19,0,.38-.04.54-.11" fill="#0c53ff"/></g><g clip-path="url(#g)"><path d="M204.08,23.67h-9.94c-.63,0-1.16.41-1.34.98h12.62c-.18-.57-.71-.98-1.34-.98" fill="#16f"/><path d="M205.42,24.64h-12.62c-.01.06-.03.1-.04.15h12.69c-.01-.06-.02-.1-.04-.15" fill="#16f"/><path d="M205.46,24.78h-12.69c0,.06-.02.1-.02.15h12.74c0-.06-.01-.1-.02-.15" fill="#16f"/><path d="M205.48,24.92h-12.74c0,.06,0,.1,0,.15h12.75c0-.06,0-.1,0-.15" fill="#1165ff"/><path d="M205.49,25.06h-12.75s0,.01,0,.02v.13h12.75v-.13s0-.01,0-.02" fill="#1165ff"/><polyline points="205.49 25.2 192.73 25.21 192.73 25.35 205.49 25.34 205.49 25.2" fill="#1164ff"/><polyline points="205.49 25.34 192.73 25.35 192.73 25.49 205.49 25.48 205.49 25.34" fill="#1164ff"/><polyline points="205.49 25.48 192.73 25.49 192.73 25.63 205.49 25.62 205.49 25.48" fill="#1163ff"/><polyline points="205.49 25.62 192.73 25.63 192.73 25.77 205.49 25.76 205.49 25.62" fill="#1163ff"/><polyline points="205.49 25.76 192.73 25.77 192.73 25.91 205.49 25.9 205.49 25.76" fill="#1162ff"/><polyline points="205.49 25.9 192.73 25.91 192.73 26.05 205.49 26.04 205.49 25.9" fill="#1162ff"/><polyline points="205.49 26.04 192.73 26.05 192.73 26.19 205.49 26.18 205.49 26.04" fill="#1161ff"/><polyline points="205.49 26.18 192.73 26.19 192.73 26.33 205.49 26.32 205.49 26.18" fill="#1161ff"/><polyline points="205.49 26.32 192.73 26.33 192.73 26.47 205.49 26.46 205.49 26.32" fill="#1160ff"/><polyline points="205.49 26.46 192.73 26.47 192.73 26.61 205.49 26.6 205.49 26.46" fill="#1160ff"/><polyline points="205.49 26.6 192.73 26.61 192.73 26.75 205.49 26.74 205.49 26.6" fill="#115fff"/><polyline points="205.49 26.74 192.73 26.75 192.73 26.89 205.49 26.88 205.49 26.74" fill="#115fff"/><polyline points="205.49 26.88 192.73 26.89 192.73 27.03 205.49 27.02 205.49 26.88" fill="#115eff"/><polyline points="205.49 27.02 192.73 27.03 192.73 27.17 205.49 27.16 205.49 27.02" fill="#115eff"/><polyline points="205.49 27.16 192.73 27.17 192.73 27.31 205.49 27.3 205.49 27.16" fill="#115dff"/><polyline points="205.49 27.3 192.73 27.31 192.73 27.45 205.49 27.44 205.49 27.3" fill="#115dff"/><polyline points="205.49 27.44 192.73 27.45 192.73 27.59 205.49 27.58 205.49 27.44" fill="#115cff"/><polyline points="205.49 27.58 192.73 27.59 192.73 27.73 205.49 27.72 205.49 27.58" fill="#115bff"/><polyline points="205.49 27.72 192.73 27.73 192.73 27.87 205.49 27.86 205.49 27.72" fill="#115bff"/><polyline points="205.49 27.86 192.73 27.87 192.73 28.01 205.49 28 205.49 27.86" fill="#115aff"/><polyline points="205.49 28 192.73 28.01 192.73 28.15 205.49 28.14 205.49 28" fill="#115aff"/><polyline points="205.49 28.14 192.73 28.15 192.73 28.29 205.49 28.28 205.49 28.14" fill="#1159ff"/><polyline points="205.49 28.28 192.73 28.29 192.73 28.43 205.49 28.42 205.49 28.28" fill="#1159ff"/><polyline points="205.49 28.42 192.73 28.43 192.73 28.57 205.49 28.56 205.49 28.42" fill="#1158ff"/><polyline points="205.49 28.56 192.73 28.57 192.73 28.71 205.49 28.7 205.49 28.56" fill="#1158ff"/><polyline points="205.49 28.7 192.73 28.71 192.73 28.85 205.49 28.84 205.49 28.7" fill="#1157ff"/><polyline points="205.49 28.84 192.73 28.85 192.73 28.99 205.49 28.98 205.49 28.84" fill="#1157ff"/><polyline points="205.49 28.98 192.73 28.99 192.73 29.13 205.49 29.12 205.49 28.98" fill="#1156ff"/><polyline points="205.49 29.12 192.73 29.13 192.73 29.27 205.49 29.26 205.49 29.12" fill="#1156ff"/><polyline points="205.49 29.26 192.73 29.27 192.73 29.41 205.49 29.4 205.49 29.26" fill="#15f"/><polyline points="205.49 29.4 192.73 29.41 192.73 29.55 205.49 29.54 205.49 29.4" fill="#15f"/><polyline points="205.49 29.54 192.73 29.55 192.73 29.69 205.49 29.68 205.49 29.54" fill="#1154ff"/><polyline points="205.49 29.68 192.73 29.69 192.73 29.83 205.49 29.82 205.49 29.68" fill="#1154ff"/><polyline points="205.49 29.82 192.73 29.83 192.73 29.97 205.49 29.96 205.49 29.82" fill="#1153ff"/><polyline points="205.49 29.96 192.73 29.97 192.73 30.11 205.49 30.1 205.49 29.96" fill="#1153ff"/><polyline points="205.49 30.1 192.73 30.11 192.73 30.25 205.49 30.24 205.49 30.1" fill="#1152ff"/><polyline points="205.49 30.24 192.73 30.25 192.73 30.39 205.49 30.38 205.49 30.24" fill="#1152ff"/><polyline points="205.49 30.38 192.73 30.39 192.73 30.54 205.49 30.53 205.49 30.38" fill="#1152ff"/><polyline points="205.49 30.53 192.73 30.54 192.73 30.68 205.49 30.67 205.49 30.53" fill="#1052ff"/><polyline points="205.49 30.67 192.73 30.68 192.73 30.82 205.49 30.81 205.49 30.67" fill="#1052ff"/><polyline points="205.49 30.81 192.73 30.82 192.73 30.96 205.49 30.95 205.49 30.81" fill="#1052ff"/><polyline points="205.49 30.95 192.73 30.96 192.73 31.1 205.49 31.09 205.49 30.95" fill="#1052ff"/><polyline points="205.49 31.09 192.73 31.1 192.73 31.24 205.49 31.23 205.49 31.09" fill="#1052ff"/><polyline points="205.49 31.23 192.73 31.24 192.73 31.38 205.49 31.37 205.49 31.23" fill="#1052ff"/><polyline points="205.49 31.37 192.73 31.38 192.73 31.52 205.49 31.51 205.49 31.37" fill="#1052ff"/><polyline points="205.49 31.51 192.73 31.52 192.73 31.67 205.49 31.66 205.49 31.51" fill="#1052ff"/><polyline points="205.49 31.66 192.73 31.67 192.73 31.81 205.49 31.8 205.49 31.66" fill="#1052ff"/><polyline points="205.49 31.8 192.73 31.81 192.73 31.95 205.49 31.94 205.49 31.8" fill="#0f52ff"/><polyline points="205.49 31.94 192.73 31.95 192.73 32.09 205.49 32.08 205.49 31.94" fill="#0f52ff"/><polyline points="205.49 32.08 192.73 32.09 192.73 32.23 205.49 32.22 205.49 32.08" fill="#0f52ff"/><polyline points="205.49 32.22 192.73 32.23 192.73 32.37 205.49 32.36 205.49 32.22" fill="#0f52ff"/><polyline points="205.49 32.36 192.73 32.37 192.73 32.51 205.49 32.5 205.49 32.36" fill="#0f52ff"/><polyline points="205.49 32.5 192.73 32.51 192.73 32.65 205.49 32.64 205.49 32.5" fill="#0f52ff"/><polyline points="205.49 32.64 192.73 32.65 192.73 32.79 205.49 32.78 205.49 32.64" fill="#0f52ff"/><polyline points="205.49 32.78 192.73 32.79 192.73 32.94 205.49 32.93 205.49 32.78" fill="#0f52ff"/><polyline points="205.49 32.93 192.73 32.94 192.73 33.08 205.49 33.07 205.49 32.93" fill="#0f52ff"/><polyline points="205.49 33.07 192.73 33.08 192.73 33.22 205.49 33.21 205.49 33.07" fill="#0e52ff"/><polyline points="205.49 33.21 192.73 33.22 192.73 33.36 205.49 33.35 205.49 33.21" fill="#0e52ff"/><polyline points="205.49 33.35 192.73 33.36 192.73 33.5 205.49 33.49 205.49 33.35" fill="#0e52ff"/><polyline points="205.49 33.49 192.73 33.5 192.73 33.64 205.49 33.63 205.49 33.49" fill="#0e52ff"/><polyline points="205.49 33.63 192.73 33.64 192.73 33.78 205.49 33.77 205.49 33.63" fill="#0e52ff"/><polyline points="205.49 33.77 192.73 33.78 192.73 33.92 205.49 33.91 205.49 33.77" fill="#0e52ff"/><polyline points="205.49 33.91 192.73 33.92 192.73 34.07 205.49 34.06 205.49 33.91" fill="#0e52ff"/><polyline points="205.49 34.06 192.73 34.07 192.73 34.21 205.49 34.2 205.49 34.06" fill="#0e52ff"/><polyline points="205.49 34.2 192.73 34.21 192.73 34.35 205.49 34.34 205.49 34.2" fill="#0d52ff"/><polyline points="205.49 34.34 192.73 34.35 192.73 34.49 205.49 34.48 205.49 34.34" fill="#0d52ff"/><polyline points="205.49 34.48 192.73 34.49 192.73 34.63 205.49 34.62 205.49 34.48" fill="#0d52ff"/><polyline points="205.49 34.62 192.73 34.63 192.73 34.77 205.49 34.76 205.49 34.62" fill="#0d52ff"/><polyline points="205.49 34.76 192.73 34.77 192.73 34.91 205.49 34.9 205.49 34.76" fill="#0d52ff"/><path d="M205.49,34.9h-12.75v.11s0,.03,0,.04h12.75s0-.03,0-.04v-.11" fill="#0d52ff"/><path d="M205.49,35.04h-12.75c0,.06,0,.1.01.15h12.73c0-.06,0-.1,0-.15" fill="#0d52ff"/><path d="M205.48,35.19h-12.73c0,.06.01.1.03.15h12.68c.01-.06.02-.1.02-.15" fill="#0d52ff"/><path d="M205.45,35.33h-12.68c.01.06.02.11.04.15h12.6c.02-.06.03-.1.04-.15" fill="#0d53ff"/><path d="M205.41,35.47h-12.6c.02.06.04.11.06.15h12.49c.02-.06.04-.1.06-.15" fill="#0c53ff"/><path d="M205.36,35.61h-12.49c.02.06.05.11.08.15h12.33c.03-.06.05-.1.08-.15" fill="#0c53ff"/><path d="M205.28,35.75h-12.33c.03.06.06.11.1.15h12.13c.04-.05.07-.1.1-.15" fill="#0c53ff"/><path d="M205.18,35.89h-12.13c.04.06.08.11.13.15h11.87c.05-.05.09-.1.13-.15" fill="#0c53ff"/><path d="M205.05,36.03h-11.87c.05.06.11.11.18.15h11.52c.06-.05.12-.1.17-.15" fill="#0c53ff"/><path d="M204.88,36.17h-11.52c.08.07.17.11.27.15h11c.09-.05.18-.09.26-.15" fill="#0c53ff"/><path d="M204.62,36.32h-11c.16.07.34.11.52.11h9.94c.19,0,.38-.04.54-.11" fill="#0c53ff"/></g></svg>