<?xml version="1.0" encoding="UTF-8"?><svg id="a" xmlns="http://www.w3.org/2000/svg" xmlns:xlink="http://www.w3.org/1999/xlink" viewBox="0 0 12.76 12.76"><defs><clipPath id="b"><path d="M11.35,12.76H1.41c-.78,0-1.41-.63-1.41-1.41V1.41C0,.63.63,0,1.41,0h9.95c.78,0,1.41.63,1.41,1.41v9.95c0,.78-.63,1.41-1.41,1.41" fill="none"/></clipPath></defs><g clip-path="url(#b)"><rect x="0" y="0" width="12.76" height=".99" fill="#ed4524"/><rect x="0" y=".99" width="12.76" height=".14" fill="#ed4524"/><rect x="0" y="1.13" width="12.76" height=".14" fill="#ed4424"/><rect x="0" y="1.27" width="12.76" height=".14" fill="#ed4324"/><rect x="0" y="1.41" width="12.76" height=".14" fill="#ed4224"/><rect x="0" y="1.55" width="12.76" height=".14" fill="#ed4124"/><rect x="0" y="1.69" width="12.76" height=".14" fill="#ed4024"/><rect x="0" y="1.83" width="12.76" height=".14" fill="#ed3f24"/><rect x="0" y="1.97" width="12.76" height=".14" fill="#ed3e24"/><rect x="0" y="2.11" width="12.76" height=".14" fill="#ed3d24"/><rect x="0" y="2.25" width="12.76" height=".14" fill="#ed3c24"/><rect x="0" y="2.39" width="12.76" height=".14" fill="#ed3b24"/><rect x="0" y="2.53" width="12.76" height=".14" fill="#ed3a24"/><rect x="0" y="2.67" width="12.76" height=".14" fill="#ed3924"/><rect x="0" y="2.81" width="12.76" height=".14" fill="#ed3824"/><rect x="0" y="2.95" width="12.76" height=".14" fill="#ed3724"/><rect x="0" y="3.09" width="12.76" height=".14" fill="#ed3624"/><rect x="0" y="3.22" width="12.76" height=".14" fill="#ed3524"/><rect x="0" y="3.36" width="12.76" height=".14" fill="#ed3424"/><rect x="0" y="3.5" width="12.76" height=".14" fill="#ed3324"/><rect x="0" y="3.64" width="12.76" height=".14" fill="#ed3224"/><rect x="0" y="3.78" width="12.76" height=".14" fill="#ed3024"/><rect x="0" y="3.92" width="12.76" height=".14" fill="#ed2f24"/><rect x="0" y="4.06" width="12.76" height=".14" fill="#ed2e24"/><rect x="0" y="4.2" width="12.76" height=".14" fill="#ed2d24"/><rect x="0" y="4.34" width="12.76" height=".14" fill="#ed2c24"/><rect x="0" y="4.48" width="12.76" height=".14" fill="#ed2b24"/><rect x="0" y="4.62" width="12.76" height=".14" fill="#ed2a24"/><rect x="0" y="4.76" width="12.76" height=".14" fill="#ed2924"/><rect x="0" y="4.9" width="12.76" height=".14" fill="#ed2824"/><rect x="0" y="5.04" width="12.76" height=".14" fill="#ed2724"/><rect x="0" y="5.18" width="12.76" height=".14" fill="#ed2624"/><rect x="0" y="5.32" width="12.76" height=".14" fill="#ed2524"/><rect x="0" y="5.46" width="12.76" height=".14" fill="#ed2424"/><rect x="0" y="5.6" width="12.76" height=".14" fill="#ed2324"/><rect x="0" y="5.73" width="12.76" height=".14" fill="#ed2224"/><rect x="0" y="5.87" width="12.76" height=".14" fill="#ed2124"/><rect x="0" y="6.01" width="12.76" height=".14" fill="#ed2024"/><rect x="0" y="6.15" width="12.76" height=".14" fill="#ed1f24"/><rect x="0" y="6.29" width="12.76" height=".14" fill="#ed1e24"/><rect x="0" y="6.43" width="12.76" height=".14" fill="#ed1d24"/><rect x="0" y="6.57" width="12.76" height=".14" fill="#ed1c24"/><rect x="0" y="6.71" width="12.76" height=".14" fill="#ed1c24"/><rect x="0" y="6.85" width="12.76" height=".14" fill="#ec1c24"/><rect x="0" y="6.99" width="12.76" height=".14" fill="#eb1c24"/><rect x="0" y="7.13" width="12.76" height=".14" fill="#ea1c25"/><rect x="0" y="7.28" width="12.76" height=".14" fill="#e91c25"/><rect x="0" y="7.42" width="12.76" height=".14" fill="#e81c25"/><rect x="0" y="7.56" width="12.76" height=".14" fill="#e71c25"/><rect x="0" y="7.7" width="12.76" height=".14" fill="#e61c25"/><rect x="0" y="7.84" width="12.76" height=".14" fill="#e51c26"/><rect x="0" y="7.98" width="12.76" height=".14" fill="#e41c26"/><rect x="0" y="8.12" width="12.76" height=".14" fill="#e31c26"/><rect x="0" y="8.27" width="12.76" height=".14" fill="#e21c26"/><rect x="0" y="8.41" width="12.76" height=".14" fill="#e11d26"/><rect x="0" y="8.55" width="12.76" height=".14" fill="#e01d27"/><rect x="0" y="8.69" width="12.76" height=".14" fill="#df1d27"/><rect x="0" y="8.83" width="12.76" height=".14" fill="#de1d27"/><rect x="0" y="8.97" width="12.76" height=".14" fill="#dd1d27"/><rect x="0" y="9.11" width="12.76" height=".14" fill="#dc1d27"/><rect x="0" y="9.26" width="12.76" height=".14" fill="#db1d28"/><rect x="0" y="9.4" width="12.76" height=".14" fill="#da1d28"/><rect x="0" y="9.54" width="12.76" height=".14" fill="#d91d28"/><rect x="0" y="9.68" width="12.76" height=".14" fill="#d71d28"/><rect x="0" y="9.82" width="12.76" height=".14" fill="#d61d28"/><rect x="0" y="9.96" width="12.76" height=".14" fill="#d51d29"/><rect x="0" y="10.1" width="12.76" height=".14" fill="#d41d29"/><rect x="0" y="10.25" width="12.76" height=".14" fill="#d31d29"/><rect x="0" y="10.39" width="12.76" height=".14" fill="#d21d29"/><rect x="0" y="10.53" width="12.76" height=".14" fill="#d11d29"/><rect x="0" y="10.67" width="12.76" height=".14" fill="#d01d29"/><rect x="0" y="10.81" width="12.76" height=".14" fill="#cf1d2a"/><rect x="0" y="10.95" width="12.76" height=".14" fill="#ce1d2a"/><rect x="0" y="11.09" width="12.76" height=".14" fill="#cd1d2a"/><rect x="0" y="11.24" width="12.76" height=".14" fill="#cc1d2a"/><rect x="0" y="11.38" width="12.76" height=".14" fill="#cb1d2a"/><rect x="0" y="11.52" width="12.76" height=".14" fill="#ca1d2b"/><rect x="0" y="11.66" width="12.76" height=".14" fill="#c91e2b"/><rect x="0" y="11.8" width="12.76" height=".14" fill="#c81e2b"/><rect x="0" y="11.94" width="12.76" height=".14" fill="#c71e2b"/><rect x="0" y="12.08" width="12.76" height=".14" fill="#c61e2b"/><rect x="0" y="12.23" width="12.76" height=".14" fill="#c51e2c"/><rect x="0" y="12.37" width="12.76" height=".14" fill="#c41e2c"/><rect x="0" y="12.51" width="12.76" height=".14" fill="#c31e2c"/><rect x="0" y="12.65" width="12.76" height=".11" fill="#c21e2c"/></g><path d="M7.43,6.38l2.85-2.9c.29-.3.29-.77,0-1.06-.3-.29-.77-.29-1.06,0l-2.84,2.88-2.84-2.88c-.29-.3-.76-.3-1.06,0-.29.29-.3.77,0,1.06l2.85,2.9-2.85,2.9c-.29.3-.29.77,0,1.06.15.14.34.22.53.22s.39-.07.53-.22l2.84-2.88,2.84,2.88c.15.15.34.22.53.22s.38-.07.53-.22c.29-.29.3-.77,0-1.06l-2.85-2.9Z" fill="#ffecd9"/></svg>